<svg width="56" height="56" viewBox="0 0 56 56" fill="none" xmlns="http://www.w3.org/2000/svg">
<g id="Logo">
<path id="Vector" d="M48.0687 28.0097C48.0687 38.7264 40.081 47.4138 30.2287 47.4138L30.2287 54.1431C41.864 54.1431 52.4858 45.146 54.6972 33.1992C55.2739 29.6376 54.9375 24.7959 54.6972 22.8203C52.4826 10.8734 41.8624 1.87642 30.2287 1.87642L30.2287 8.6051C40.081 8.6051 48.0687 17.2931 48.0687 28.0097Z" fill="#AAAAAA"/>
<g id="Ellipse 37">
<mask id="path-2-inside-1_2971_110936" fill="white">
<path d="M28.459 50.9997C28.459 53.7612 30.7162 56.0462 33.4307 55.5397C35.3348 55.1844 37.2014 54.6252 38.9985 53.8684C42.3399 52.4612 45.376 50.3988 47.9334 47.7988C50.4908 45.1987 52.5195 42.112 53.9036 38.7149C55.2876 35.3178 56 31.6769 56 27.9999C56 24.3229 55.2876 20.6819 53.9036 17.2848C52.5195 13.8877 50.4908 10.801 47.9334 8.20097C45.376 5.60094 42.3399 3.53849 38.9985 2.13136C37.2014 1.37456 35.3348 0.815297 33.4307 0.460002C30.7162 -0.0465212 28.459 2.23857 28.459 5L28.459 27.9999L28.459 50.9997Z"/>
</mask>
<path d="M28.459 50.9997C28.459 53.7612 30.7162 56.0462 33.4307 55.5397C35.3348 55.1844 37.2014 54.6252 38.9985 53.8684C42.3399 52.4612 45.376 50.3988 47.9334 47.7988C50.4908 45.1987 52.5195 42.112 53.9036 38.7149C55.2876 35.3178 56 31.6769 56 27.9999C56 24.3229 55.2876 20.6819 53.9036 17.2848C52.5195 13.8877 50.4908 10.801 47.9334 8.20097C45.376 5.60094 42.3399 3.53849 38.9985 2.13136C37.2014 1.37456 35.3348 0.815297 33.4307 0.460002C30.7162 -0.0465212 28.459 2.23857 28.459 5L28.459 27.9999L28.459 50.9997Z" stroke="#383838" stroke-width="4" stroke-linejoin="round" mask="url(#path-2-inside-1_2971_110936)"/>
</g>
<g id="Ellipse 44">
<mask id="path-3-inside-2_2971_110936" fill="white">
<path d="M27.541 5.00027C27.541 2.23885 25.2838 -0.0462423 22.5693 0.460281C20.6652 0.815577 18.7986 1.37484 17.0015 2.13164C13.6601 3.53876 10.624 5.60122 8.06657 8.20125C5.50916 10.8013 3.4805 13.888 2.09644 17.2851C0.712373 20.6822 3.99842e-06 24.3231 3.67403e-06 28.0001C3.34964e-06 31.6771 0.712372 35.3181 2.09643 38.7152C3.4805 42.1123 5.50915 45.199 8.06657 47.799C10.624 50.3991 13.6601 52.4615 17.0015 53.8686C18.7986 54.6254 20.6652 55.1847 22.5693 55.54C25.2838 56.0465 27.541 53.7614 27.541 51L27.541 28.0001L27.541 5.00027Z"/>
</mask>
<path d="M27.541 5.00027C27.541 2.23885 25.2838 -0.0462423 22.5693 0.460281C20.6652 0.815577 18.7986 1.37484 17.0015 2.13164C13.6601 3.53876 10.624 5.60122 8.06657 8.20125C5.50916 10.8013 3.4805 13.888 2.09644 17.2851C0.712373 20.6822 3.99842e-06 24.3231 3.67403e-06 28.0001C3.34964e-06 31.6771 0.712372 35.3181 2.09643 38.7152C3.4805 42.1123 5.50915 45.199 8.06657 47.799C10.624 50.3991 13.6601 52.4615 17.0015 53.8686C18.7986 54.6254 20.6652 55.1847 22.5693 55.54C25.2838 56.0465 27.541 53.7614 27.541 51L27.541 28.0001L27.541 5.00027Z" stroke="#383838" stroke-width="4" stroke-linejoin="round" mask="url(#path-3-inside-2_2971_110936)"/>
</g>
<g id="Lenz">
<path id="Ellipse 173" d="M38.4772 27.5324C38.4772 33.4391 33.7717 38.199 28.0018 38.199C22.2319 38.199 17.5264 33.4391 17.5264 27.5324C17.5264 21.6257 22.2319 16.8657 28.0018 16.8657C33.7717 16.8657 38.4772 21.6257 38.4772 27.5324Z" fill="#7EBC59" stroke="#383838" stroke-width="2"/>
</g>
<ellipse id="Ellipse 174" cx="27.9995" cy="27.5337" rx="6.88524" ry="7" fill="#AAAAAA"/>
</g>
</svg>
