<svg width="166" height="80" viewBox="0 0 166 80" fill="none" xmlns="http://www.w3.org/2000/svg">
<path d="M100.919 25.009C100.919 34.5774 93.7874 42.334 84.9907 42.334L84.9907 48.3423C95.3794 48.3423 104.863 40.3092 106.838 29.6424C107.353 26.4624 107.052 22.1395 106.838 20.3755C104.86 9.70869 95.378 1.67563 84.9907 1.67563L84.9907 7.68338C93.7874 7.68338 100.919 15.4405 100.919 25.009Z" fill="#AAAAAA"/>
<mask id="path-2-inside-1_2764_51456" fill="white">
<path d="M83.4098 44.9998C83.4098 47.7612 85.6716 50.0514 88.3744 49.485C89.8924 49.1668 91.3812 48.7027 92.8201 48.0968C95.8035 46.8404 98.5143 44.9989 100.798 42.6775C103.081 40.356 104.892 37.6 106.128 34.5669C107.364 31.5338 108 28.2829 108 24.9999C108 21.7169 107.364 18.466 106.128 15.4328C104.892 12.3997 103.081 9.64375 100.798 7.32229C98.5143 5.00084 95.8035 3.15936 92.8201 1.903C91.3812 1.29705 89.8924 0.832938 88.3744 0.514794C85.6716 -0.0516119 83.4098 2.23858 83.4098 5L83.4098 24.9999L83.4098 44.9998Z"/>
</mask>
<path d="M83.4098 44.9998C83.4098 47.7612 85.6716 50.0514 88.3744 49.485C89.8924 49.1668 91.3812 48.7027 92.8201 48.0968C95.8035 46.8404 98.5143 44.9989 100.798 42.6775C103.081 40.356 104.892 37.6 106.128 34.5669C107.364 31.5338 108 28.2829 108 24.9999C108 21.7169 107.364 18.466 106.128 15.4328C104.892 12.3997 103.081 9.64375 100.798 7.32229C98.5143 5.00084 95.8035 3.15936 92.8201 1.903C91.3812 1.29705 89.8924 0.832938 88.3744 0.514794C85.6716 -0.0516119 83.4098 2.23858 83.4098 5L83.4098 24.9999L83.4098 44.9998Z" stroke="#383838" stroke-width="4" stroke-linejoin="round" mask="url(#path-2-inside-1_2764_51456)"/>
<mask id="path-3-inside-2_2764_51456" fill="white">
<path d="M82.5902 5.00024C82.5902 2.23881 80.3284 -0.0513734 77.6256 0.515032C76.1076 0.833174 74.6188 1.29729 73.1799 1.90324C70.1965 3.1596 67.4857 5.00108 65.2023 7.32253C62.9189 9.64398 61.1076 12.4 59.8718 15.4331C58.636 18.4662 58 21.7171 58 25.0001C58 28.2831 58.636 31.534 59.8718 34.5672C61.1076 37.6003 62.9189 40.3563 65.2023 42.6777C67.4857 44.9992 70.1965 46.8406 73.1799 48.097C74.6188 48.7029 76.1076 49.1671 77.6256 49.4852C80.3284 50.0516 82.5902 47.7614 82.5902 45L82.5902 25.0001L82.5902 5.00024Z"/>
</mask>
<path d="M82.5902 5.00024C82.5902 2.23881 80.3284 -0.0513734 77.6256 0.515032C76.1076 0.833174 74.6188 1.29729 73.1799 1.90324C70.1965 3.1596 67.4857 5.00108 65.2023 7.32253C62.9189 9.64398 61.1076 12.4 59.8718 15.4331C58.636 18.4662 58 21.7171 58 25.0001C58 28.2831 58.636 31.534 59.8718 34.5672C61.1076 37.6003 62.9189 40.3563 65.2023 42.6777C67.4857 44.9992 70.1965 46.8406 73.1799 48.097C74.6188 48.7029 76.1076 49.1671 77.6256 49.4852C80.3284 50.0516 82.5902 47.7614 82.5902 45L82.5902 25.0001L82.5902 5.00024Z" stroke="#383838" stroke-width="4" stroke-linejoin="round" mask="url(#path-3-inside-2_2764_51456)"/>
<path d="M92.2459 24.5832C92.2459 29.7995 88.0908 33.9998 83 33.9998C77.9091 33.9998 73.7541 29.7995 73.7541 24.5832C73.7541 19.3668 77.9091 15.1665 83 15.1665C88.0908 15.1665 92.2459 19.3668 92.2459 24.5832Z" fill="#7EBC59" stroke="#383838" stroke-width="2"/>
<ellipse cx="83" cy="24.5835" rx="6.14754" ry="6.25" fill="#AAAAAA"/>
<path d="M29.96 76V62.28H37.16C38.0133 62.28 38.72 62.4467 39.28 62.78C39.84 63.1133 40.26 63.56 40.54 64.12C40.82 64.68 40.96 65.3133 40.96 66.02C40.96 67.02 40.7267 67.86 40.26 68.54C39.7933 69.2067 39.2067 69.66 38.5 69.9L41.44 76H40.24L37.4 70.1H31.04V76H29.96ZM31.04 69.14H37C37.8933 69.14 38.5933 68.86 39.1 68.3C39.62 67.74 39.88 66.9733 39.88 66C39.88 65.4267 39.7733 64.94 39.56 64.54C39.3467 64.1267 39.0267 63.8067 38.6 63.58C38.1733 63.3533 37.64 63.24 37 63.24H31.04V69.14ZM60.2369 76.24C58.8235 76.24 57.6102 75.9733 56.5969 75.44C55.5969 74.9067 54.8235 74.1133 54.2769 73.06C53.7435 72.0067 53.4769 70.7 53.4769 69.14C53.4769 67.5667 53.7435 66.26 54.2769 65.22C54.8235 64.1667 55.5969 63.3733 56.5969 62.84C57.6102 62.3067 58.8235 62.04 60.2369 62.04C61.6635 62.04 62.8769 62.3067 63.8769 62.84C64.8902 63.3733 65.6635 64.1667 66.1969 65.22C66.7435 66.26 67.0169 67.5667 67.0169 69.14C67.0169 70.7 66.7435 72.0067 66.1969 73.06C65.6635 74.1133 64.8902 74.9067 63.8769 75.44C62.8769 75.9733 61.6635 76.24 60.2369 76.24ZM60.2369 75.28C61.0635 75.28 61.8235 75.1733 62.5169 74.96C63.2102 74.7467 63.8035 74.4067 64.2969 73.94C64.8035 73.46 65.1902 72.8467 65.4569 72.1C65.7369 71.34 65.8769 70.42 65.8769 69.34V68.94C65.8769 67.86 65.7369 66.9467 65.4569 66.2C65.1902 65.44 64.8035 64.8267 64.2969 64.36C63.8035 63.88 63.2102 63.5333 62.5169 63.32C61.8235 63.1067 61.0635 63 60.2369 63C59.4102 63 58.6502 63.1067 57.9569 63.32C57.2769 63.5333 56.6835 63.88 56.1769 64.36C55.6835 64.8267 55.2969 65.44 55.0169 66.2C54.7502 66.9467 54.6169 67.86 54.6169 68.94V69.34C54.6169 70.42 54.7502 71.34 55.0169 72.1C55.2969 72.8467 55.6835 73.46 56.1769 73.94C56.6835 74.4067 57.2769 74.7467 57.9569 74.96C58.6502 75.1733 59.4102 75.28 60.2369 75.28Z" fill="#7EBC59"/>
<path d="M79.6753 76V62.24H88.8353C89.5286 62.24 90.162 62.3867 90.7353 62.68C91.3086 62.96 91.7686 63.3533 92.1153 63.86C92.462 64.3667 92.6353 64.9533 92.6353 65.62C92.6353 66.2867 92.5286 66.8333 92.3153 67.26C92.102 67.6867 91.822 68.0267 91.4753 68.28C91.1286 68.52 90.7486 68.7 90.3353 68.82V68.9C90.8153 69.0067 91.2486 69.1933 91.6353 69.46C92.0353 69.7133 92.3553 70.0733 92.5953 70.54C92.8353 71.0067 92.9553 71.6067 92.9553 72.34C92.9553 73.0733 92.7753 73.7133 92.4153 74.26C92.0553 74.8067 91.5753 75.2333 90.9753 75.54C90.3753 75.8467 89.702 76 88.9553 76H79.6753ZM84.0953 72.8H87.4553C87.762 72.8 88.0086 72.6933 88.1953 72.48C88.382 72.2667 88.4753 71.9467 88.4753 71.52C88.4753 71.32 88.4286 71.14 88.3353 70.98C88.2553 70.8067 88.1353 70.6733 87.9753 70.58C87.8286 70.4867 87.6553 70.44 87.4553 70.44H84.0953V72.8ZM84.0953 67.6H87.1353C87.3486 67.6 87.5286 67.5533 87.6753 67.46C87.822 67.3533 87.9353 67.2067 88.0153 67.02C88.1086 66.8333 88.1553 66.6 88.1553 66.32C88.1553 66.0267 88.0553 65.78 87.8553 65.58C87.6553 65.3667 87.4153 65.26 87.1353 65.26H84.0953V67.6ZM105.242 76V62.24H109.662V76H105.242ZM122.625 76V62.24H126.385L130.665 67.18C130.785 67.3133 130.945 67.5067 131.145 67.76C131.345 68.0133 131.545 68.2733 131.745 68.54C131.958 68.7933 132.118 69 132.225 69.16L132.325 69.12C132.311 68.7467 132.305 68.38 132.305 68.02C132.305 67.6467 132.305 67.3667 132.305 67.18V62.24H136.325V76H132.585L127.765 70.5C127.538 70.2333 127.345 69.9933 127.185 69.78C127.025 69.5533 126.871 69.34 126.725 69.14L126.625 69.18C126.638 69.4333 126.645 69.6867 126.645 69.94C126.645 70.1933 126.645 70.38 126.645 70.5V76H122.625Z" fill="#383838"/>
</svg>
