<svg width="415" height="284" viewBox="0 0 415 284" fill="none" xmlns="http://www.w3.org/2000/svg">
<path opacity="0.32" d="M6.02432 70.3653C0.56478 85.0927 -0.926744 101.182 2.60976 116.402C7.35638 136.867 23.7256 154.863 20.9302 176.691C19.2604 189.792 19.5606 201.796 19.2229 214.669C18.5287 241.092 38.2375 262.999 61.3608 273.921C80.1221 282.814 101.501 285.16 122.11 283.455C140.665 281.926 158.938 277.366 176.574 271.707C193.572 266.259 210.063 259.492 228.393 259.993C243.627 260.415 257.764 265.723 272.229 269.404C306.759 278.192 347.602 276.953 376.954 257.893C409.13 236.988 422.122 197.341 410.875 162.684C404.852 144.099 396.804 127.992 399.712 108.203C401.147 98.458 403.276 88.5461 401.307 78.8889C399.496 69.9963 394.29 61.9999 388.117 55.0317C371.485 36.2534 347.78 24.2764 323.175 17.2467C295.249 9.2503 264.236 4.94456 235.194 9.03061C178.769 17.0709 166.49 9.25908 107.514 1.4121C68.0117 -3.86022 30.9206 25.5857 12.9191 55.8928C10.1763 60.5202 7.86935 65.3627 6.02432 70.3653Z" fill="#EDEDEF"/>
</svg>
