<svg width="448" height="391" viewBox="0 0 448 391" fill="none" xmlns="http://www.w3.org/2000/svg">
<g opacity="0.41">
<path d="M22.887 267.031C22.1211 260.343 21.9513 253.606 22.3793 246.891C24.4195 215.367 39.6501 184.981 63.2764 162.893C71.7379 155.017 81.384 147.854 86.6019 137.749C95.3924 120.727 93.6437 101.758 104.775 84.8338C115.954 67.8231 132.519 54.5055 152.159 46.738C209.998 24.2981 294.124 52.0242 290.363 120.234C290.363 120.48 290.363 120.833 290.363 121.282C290.279 124.59 290.911 127.88 292.223 130.952C293.534 134.024 295.498 136.815 297.994 139.155C300.491 141.495 303.468 143.336 306.746 144.567C310.024 145.797 313.534 146.391 317.064 146.312C371.462 144.85 420.36 182.602 433.08 232.865C441.26 265.199 432.629 301.506 408.899 325.84C391.187 344.007 366.695 354.72 342.025 362.473C292.573 378.015 239.952 383.371 187.98 380.975C139.326 378.711 87.5609 367.936 54.3543 333.857C36.5852 315.655 25.7169 291.753 22.887 267.031Z" fill="#EDEDEF"/>
</g>
<g opacity="0.31">
<path d="M295.614 42.2223C295.752 35.7556 290.383 30.4104 283.622 30.2834C276.862 30.1564 271.27 35.2958 271.132 41.7624C270.994 48.2291 276.363 53.5743 283.124 53.7012C289.884 53.8282 295.476 48.6889 295.614 42.2223Z" fill="#EDEDEF"/>
</g>
<g opacity="0.31">
<path d="M76.2989 42.4205C76.3909 43.5816 76.8463 44.6915 77.608 45.6114C78.3696 46.5312 79.4039 47.2202 80.5813 47.5921C81.7587 47.964 83.027 48.0023 84.2275 47.7023C85.428 47.4023 86.5075 46.7772 87.3309 45.9053C88.1543 45.0334 88.685 43.9533 88.8567 42.8002C89.0284 41.6471 88.8335 40.4721 88.2962 39.4223C87.759 38.3725 86.9033 37.4944 85.8363 36.8979C84.7693 36.3014 83.5382 36.013 82.2971 36.0687C81.4562 36.1112 80.6326 36.3099 79.8743 36.6533C79.1161 36.9967 78.4382 37.4779 77.8801 38.0689C77.322 38.6599 76.8948 39.3489 76.6233 40.096C76.3519 40.843 76.2416 41.6332 76.2989 42.4205Z" fill="#EDEDEF"/>
</g>
<g opacity="0.31">
<path d="M439.644 178.981C439.705 179.75 440.006 180.485 440.51 181.095C441.014 181.705 441.699 182.162 442.479 182.408C443.259 182.655 444.099 182.681 444.894 182.482C445.69 182.283 446.405 181.869 446.95 181.292C447.496 180.714 447.847 179.998 447.961 179.234C448.074 178.47 447.945 177.692 447.588 176.997C447.232 176.301 446.664 175.72 445.957 175.325C445.25 174.931 444.434 174.741 443.612 174.778C443.056 174.809 442.513 174.942 442.012 175.169C441.512 175.397 441.064 175.716 440.695 176.106C440.327 176.497 440.044 176.952 439.864 177.445C439.683 177.938 439.609 178.46 439.644 178.981Z" fill="#EDEDEF"/>
</g>
<path opacity="0.47" d="M19.9826 86.4727C17.0812 81.6935 16.2859 76.0415 17.7664 70.7209C19.2468 65.4004 22.8859 60.8319 27.9082 57.9889C38.3064 52.2093 58.8678 51.575 64.8942 61.513C70.9207 71.4511 54.9473 81.0807 48.7516 90.9483C40.1115 104.71 26.0185 96.4371 19.9826 86.4727Z" fill="#FAFAFA"/>
<path opacity="0.32" d="M38.1095 130.683C32.6377 145.449 31.1429 161.581 34.6873 176.84C39.4445 197.359 55.8504 215.403 53.0487 237.288C51.3752 250.424 51.676 262.459 51.3376 275.366C50.6419 301.858 70.3947 323.823 93.5697 334.774C112.373 343.69 133.799 346.042 154.455 344.333C173.051 342.8 191.365 338.227 209.041 332.554C226.076 327.091 242.604 320.307 260.975 320.809C276.243 321.232 290.412 326.554 304.909 330.245C339.516 339.056 380.451 337.813 409.869 318.704C442.116 297.744 455.138 257.992 443.865 223.244C437.829 204.61 429.763 188.461 432.677 168.62C434.116 158.849 436.25 148.911 434.275 139.229C432.461 130.313 427.243 122.295 421.057 115.309C404.388 96.4813 380.63 84.4728 355.969 77.4246C327.981 69.4072 296.899 65.0901 267.791 69.1869C211.241 77.2483 198.934 69.416 139.826 61.5484C100.235 56.2622 63.0614 85.7855 45.0197 116.172C42.2708 120.812 39.9586 125.667 38.1095 130.683Z" fill="#EDEDEF"/>
<g opacity="0.83">
<path opacity="0.81" d="M65.4961 173.316C73.6379 163.254 86.2267 156.409 92.3941 144.841C99.7838 130.982 98.2231 114.639 104.823 100.481C114.563 79.5653 132.219 61.8037 154.323 52.0242C164.975 47.3195 176.661 44.465 188.065 45.2843C205.646 46.5442 220.82 56.3589 232.676 68.0678C250.323 85.5299 262.808 110.26 283.99 124.251C295.676 131.96 309.374 123.784 321.794 121.185C335.676 118.365 350.088 118.822 363.735 122.516C388.376 129.088 409.596 145.625 420.21 167.448C431.539 190.734 429.922 222.953 408.656 242.944C398.822 252.212 385.481 258.397 378.176 269.498C369.018 283.418 367.937 302.237 365.38 317.717C362.427 335.113 354.732 351.5 343.042 365.293L342.637 365.76C332.807 377.243 319.236 385.397 303.997 388.976C288.758 392.556 272.687 391.364 258.239 385.583L195.906 360.28C132.661 334.597 84.6566 293.215 61.6132 233.252C56.6209 220.284 54.8158 192.619 61.1713 179.95C62.3606 177.603 63.8102 175.379 65.4961 173.316Z" fill="#EDEDEF"/>
</g>
<ellipse cx="235.526" cy="315.803" rx="184.411" ry="4.01028" fill="#B6B7C0"/>
<path d="M86.3965 117.282V315.435H193.902V117.282H86.3965Z" fill="#ABD492"/>
<path d="M391.977 315.435H193.902V118.019H391.977V315.435Z" fill="#C7E2B6"/>
<path d="M208.629 287.443V308.805H255.754V287.443H208.629Z" fill="#F0F9EC"/>
<path d="M211.574 215.99L194.639 118.755H391.977V215.99H211.574Z" fill="#749E5B"/>
<path d="M177.702 216.727L194.638 118.755H86.3965V216.727H177.702Z" fill="#77A25D"/>
<path d="M218.938 199.784L194.639 117.282H391.977L422.167 199.784H218.938Z" fill="#72B54A"/>
<path d="M132.786 117.282V315.435H146.777V117.282H132.786Z" fill="#94C577" fill-opacity="0.5"/>
<path d="M48.1074 199.784L86.397 117.282H194.639L166.658 199.784H48.1074Z" fill="#5B913B"/>
<path d="M252.835 79.8213V93.6221C252.836 94.7097 252.622 95.7867 252.206 96.7917C251.79 97.7966 251.181 98.7098 250.412 99.4789C249.643 100.248 248.731 100.858 247.726 101.274C246.722 101.69 245.645 101.904 244.558 101.904H239.04L234.488 106.458C234.364 106.589 234.214 106.694 234.048 106.766C233.882 106.837 233.703 106.874 233.522 106.874C233.341 106.874 233.162 106.837 232.996 106.766C232.83 106.694 232.681 106.589 232.556 106.458L228.005 101.904H222.482C221.395 101.904 220.318 101.69 219.314 101.274C218.31 100.857 217.397 100.247 216.629 99.4783C215.86 98.7092 215.25 97.7962 214.835 96.7914C214.419 95.7865 214.205 94.7096 214.205 93.6221V79.8213C214.205 77.6253 215.077 75.5192 216.629 73.9664C218.181 72.4136 220.287 71.5413 222.482 71.5413H244.556C246.751 71.5413 248.856 72.4136 250.409 73.9664C251.961 75.5192 252.835 77.6253 252.835 79.8213Z" stroke="#AAAAAA" stroke-width="2" stroke-linecap="round" stroke-linejoin="round"/>
<path d="M233.521 87.8254C233.703 87.8254 233.882 87.7898 234.049 87.7204C234.217 87.6511 234.369 87.5495 234.497 87.4214C234.625 87.2933 234.726 87.1412 234.796 86.9738C234.865 86.8064 234.901 86.627 234.901 86.4459C234.901 86.2647 234.865 86.0853 234.796 85.9179C234.726 85.7505 234.625 85.5985 234.497 85.4704C234.369 85.3422 234.217 85.2406 234.049 85.1713C233.882 85.102 233.703 85.0663 233.521 85.0663C233.156 85.0663 232.805 85.2116 232.546 85.4704C232.288 85.7291 232.142 86.08 232.142 86.4459C232.142 86.8117 232.288 87.1627 232.546 87.4214C232.805 87.6801 233.156 87.8254 233.521 87.8254ZM243.178 87.8254C243.359 87.8254 243.539 87.7898 243.706 87.7204C243.873 87.6511 244.026 87.5495 244.154 87.4214C244.282 87.2933 244.383 87.1412 244.453 86.9738C244.522 86.8064 244.558 86.627 244.558 86.4459C244.558 86.2647 244.522 86.0853 244.453 85.9179C244.383 85.7505 244.282 85.5985 244.154 85.4704C244.026 85.3422 243.873 85.2406 243.706 85.1713C243.539 85.102 243.359 85.0663 243.178 85.0663C242.813 85.0663 242.462 85.2116 242.203 85.4704C241.945 85.7291 241.799 86.08 241.799 86.4459C241.799 86.8117 241.945 87.1627 242.203 87.4214C242.462 87.6801 242.813 87.8254 243.178 87.8254ZM223.864 87.8254C224.046 87.8254 224.225 87.7898 224.392 87.7204C224.56 87.6511 224.712 87.5495 224.84 87.4214C224.968 87.2933 225.069 87.1412 225.139 86.9738C225.208 86.8064 225.244 86.627 225.244 86.4459C225.244 86.2647 225.208 86.0853 225.139 85.9179C225.069 85.7505 224.968 85.5985 224.84 85.4704C224.712 85.3422 224.56 85.2406 224.392 85.1713C224.225 85.102 224.046 85.0663 223.864 85.0663C223.499 85.0663 223.148 85.2116 222.889 85.4704C222.631 85.7291 222.485 86.08 222.485 86.4459C222.485 86.8117 222.631 87.1627 222.889 87.4214C223.148 87.6801 223.499 87.8254 223.864 87.8254Z" stroke="#383838" stroke-width="2" stroke-linecap="round" stroke-linejoin="round"/>
<path d="M23.0559 171.596C23.0559 177.061 18.4194 181.627 12.5279 181.627C6.63654 181.627 2 177.061 2 171.596C2 166.131 6.63654 161.564 12.5279 161.564C18.4194 161.564 23.0559 166.131 23.0559 171.596Z" stroke="#D8DADE" stroke-width="4"/>
<path d="M447 245.79C447 248.486 444.607 250.805 441.485 250.805C438.363 250.805 435.971 248.486 435.971 245.79C435.971 243.094 438.363 240.774 441.485 240.774C444.607 240.774 447 243.094 447 245.79Z" stroke="#D8DADE" stroke-width="2"/>
<path d="M417.133 91.1396L425.507 78.18L433.882 91.1396L425.507 104.099L417.133 91.1396Z" fill="#D9DDE2"/>
<path d="M49.5113 269.491L55.687 259.934L61.8626 269.491L55.687 279.048L49.5113 269.491Z" fill="#D9DDE2"/>
<path d="M244.748 47.491C246.582 42.9038 247.49 37.3953 247.49 30.9793C247.49 24.6013 246.582 19.1302 244.747 14.5805C242.932 10.0313 240.303 6.53346 236.848 4.11724C233.391 1.69924 229.27 0.5 224.51 0.5C219.749 0.5 215.628 1.69924 212.171 4.11724L212.17 4.11801C208.735 6.53418 206.106 10.0315 204.273 14.5796L204.272 14.5806C202.457 19.111 201.549 24.5816 201.529 30.9778V30.9793C201.529 37.3762 202.428 42.8747 204.243 47.4613L204.244 47.4637C206.077 52.0302 208.705 55.5552 212.138 58.0091L212.141 58.011C215.599 60.4488 219.73 61.6578 224.51 61.6578C229.289 61.6578 233.411 60.4489 236.851 58.0105C240.305 55.5751 242.933 52.0585 244.748 47.491ZM244.748 47.491C244.748 47.4911 244.748 47.4913 244.747 47.4915L244.283 47.3058L244.748 47.4905C244.748 47.4906 244.748 47.4908 244.748 47.491ZM147.95 49.24V49.74H148.45H175.787V60.0485V60.5485H176.287H186.373H186.873V60.0485V49.74H193.838H194.338V49.24V40.5648V40.0648H193.838H186.873V1.79642V1.29642H186.373H180.719H180.219H176.401H175.901H173.21H172.935L172.788 1.52869L148.028 40.5815L147.95 40.704V40.8492V49.24ZM159.897 40.0648L175.901 14.7482V40.0648H159.897ZM232.712 46.625L232.712 46.6257C230.678 50.0824 227.952 51.755 224.51 51.755C222.2 51.755 220.221 51.0027 218.549 49.4953C216.87 47.9631 215.541 45.6645 214.589 42.5537C213.658 39.4492 213.195 35.5958 213.214 30.9814V30.9807C213.233 24.0766 214.293 18.9189 216.336 15.4468L216.337 15.4458C218.371 11.9687 221.089 10.289 224.51 10.289C226.799 10.289 228.767 11.0491 230.441 12.5761L230.443 12.578C232.122 14.0915 233.451 16.3714 234.403 19.4646C235.352 22.5498 235.834 26.3839 235.834 30.9793C235.834 37.9403 234.773 43.1348 232.712 46.625ZM254.902 49.24V49.74H255.402H282.739V60.0485V60.5485H283.239H293.325H293.825V60.0485V49.74H300.79H301.29V49.24V40.5648V40.0648H300.79H293.825V1.79642V1.29642H293.325H287.671H287.171H283.353H282.853H280.162H279.887L279.74 1.52869L254.98 40.5815L254.902 40.704V40.8492V49.24ZM282.853 40.0648H266.849L282.853 14.7482V40.0648Z" fill="#5B913B" stroke="#383838"/>
</svg>
