<svg width="44" height="44" viewBox="0 0 44 44" fill="none" xmlns="http://www.w3.org/2000/svg">
<path d="M37.7682 22.0082C37.7682 30.4284 31.4922 37.2542 23.7511 37.2542L23.7511 42.5415C32.8932 42.5415 41.2388 35.4724 42.9763 26.0856C43.4295 23.2872 43.1651 19.4831 42.9763 17.9308C41.2363 8.54396 32.8919 1.47488 23.7511 1.47487L23.7511 6.76169C31.4922 6.76169 37.7682 13.588 37.7682 22.0082Z" fill="#AAAAAA"/>
<mask id="path-2-inside-1_3218_10421" fill="white">
<path d="M22.3606 38.9998C22.3606 41.7612 24.6291 44.0576 27.3149 43.4154C28.4483 43.1444 29.5609 42.7802 30.6417 42.3251C33.2671 41.2195 35.6526 39.599 37.662 37.5561C39.6714 35.5133 41.2653 33.088 42.3528 30.4189C43.4403 27.7497 44 24.8889 44 21.9999C44 19.1108 43.4403 16.25 42.3528 13.5809C41.2653 10.9117 39.6714 8.48649 37.662 6.44361C35.6526 4.40074 33.2671 2.78024 30.6417 1.67464C29.5609 1.21953 28.4483 0.855337 27.3149 0.58433C24.6291 -0.057851 22.3606 2.23858 22.3606 5L22.3606 21.9999L22.3606 38.9998Z"/>
</mask>
<path d="M22.3606 38.9998C22.3606 41.7612 24.6291 44.0576 27.3149 43.4154C28.4483 43.1444 29.5609 42.7802 30.6417 42.3251C33.2671 41.2195 35.6526 39.599 37.662 37.5561C39.6714 35.5133 41.2653 33.088 42.3528 30.4189C43.4403 27.7497 44 24.8889 44 21.9999C44 19.1108 43.4403 16.25 42.3528 13.5809C41.2653 10.9117 39.6714 8.48649 37.662 6.44361C35.6526 4.40074 33.2671 2.78024 30.6417 1.67464C29.5609 1.21953 28.4483 0.855337 27.3149 0.58433C24.6291 -0.057851 22.3606 2.23858 22.3606 5L22.3606 21.9999L22.3606 38.9998Z" stroke="#383838" stroke-width="4" stroke-linejoin="round" mask="url(#path-2-inside-1_3218_10421)"/>
<mask id="path-3-inside-2_3218_10421" fill="white">
<path d="M21.6393 5.00025C21.6393 2.23882 19.3708 -0.0576032 16.6851 0.584578C15.5517 0.855585 14.439 1.21978 13.3583 1.67489C10.7329 2.78048 8.34741 4.40098 6.33802 6.44386C4.32862 8.48674 2.73468 10.912 1.6472 13.5811C0.559721 16.2503 3.14161e-06 19.1111 2.88673e-06 22.0001C2.63186e-06 24.8892 0.55972 27.75 1.6472 30.4191C2.73468 33.0883 4.32862 35.5135 6.33801 37.5564C8.34741 39.5993 10.7329 41.2198 13.3583 42.3254C14.439 42.7805 15.5517 43.1447 16.6851 43.4157C19.3708 44.0579 21.6393 41.7614 21.6393 39L21.6393 22.0001L21.6393 5.00025Z"/>
</mask>
<path d="M21.6393 5.00025C21.6393 2.23882 19.3708 -0.0576032 16.6851 0.584578C15.5517 0.855585 14.439 1.21978 13.3583 1.67489C10.7329 2.78048 8.34741 4.40098 6.33802 6.44386C4.32862 8.48674 2.73468 10.912 1.6472 13.5811C0.559721 16.2503 3.14161e-06 19.1111 2.88673e-06 22.0001C2.63186e-06 24.8892 0.55972 27.75 1.6472 30.4191C2.73468 33.0883 4.32862 35.5135 6.33801 37.5564C8.34741 39.5993 10.7329 41.2198 13.3583 42.3254C14.439 42.7805 15.5517 43.1447 16.6851 43.4157C19.3708 44.0579 21.6393 41.7614 21.6393 39L21.6393 22.0001L21.6393 5.00025Z" stroke="#383838" stroke-width="4" stroke-linejoin="round" mask="url(#path-3-inside-2_3218_10421)"/>
<path d="M30.0171 21.632C30.0171 26.158 26.4125 29.7986 22.0007 29.7986C17.5889 29.7986 13.9843 26.158 13.9843 21.632C13.9843 17.106 17.5889 13.4653 22.0007 13.4653C26.4125 13.4653 30.0171 17.106 30.0171 21.632Z" fill="#7EBC59" stroke="#383838" stroke-width="2"/>
<ellipse cx="22" cy="21.6338" rx="5.40983" ry="5.5" fill="#AAAAAA"/>
</svg>
