<svg width="430" height="360" viewBox="0 0 430 360" fill="none" xmlns="http://www.w3.org/2000/svg">
<g opacity="0.41">
<path d="M429.791 230.067C430.194 223.048 430.016 215.99 429.239 209.009C425.588 176.197 409.036 145.252 384.686 123.422C375.998 115.631 366.112 108.66 360.457 98.3732C350.936 81.0579 351.657 61.1614 339.843 44.0651C328.009 26.9497 310.774 13.6061 291.33 6.7485C233.352 -13.6909 152.194 19.5874 159.496 90.6489C159.524 90.9061 159.552 91.2775 159.58 91.7442C160.554 106.507 149.161 118.917 134.668 119.27C81.1749 120.565 35.1334 162.52 25.2847 215.666C18.9467 249.849 29.3197 287.309 53.8945 311.482C72.2343 329.53 96.8466 339.445 121.478 346.255C170.852 359.913 222.81 362.78 273.72 357.551C321.372 352.665 371.635 338.721 402.455 301.424C418.885 281.546 428.303 256.031 429.791 230.067Z" fill="#EDEDEF"/>
</g>
<g opacity="0.31">
<path d="M134.638 19.4688C135.788 14.7783 132.983 10.0275 128.372 8.85763C123.762 7.68777 119.092 10.5418 117.942 15.2324C116.793 19.9229 119.598 24.6737 124.208 25.8435C128.819 27.0134 133.489 24.1593 134.638 19.4688Z" fill="#EDEDEF"/>
</g>
<path opacity="0.47" d="M7.90016 68.1332C0.186003 85.1819 -1.92977 104.831 1.77752 123.203C6.13077 144.805 19.3497 161.396 14.7624 184.436C11.9726 198.475 11.2704 211.475 9.85679 225.362C6.94525 253.878 25.1447 279.003 47.7254 292.576C66.0653 303.595 87.5601 307.729 108.643 307.434C127.619 307.167 146.558 303.605 164.945 298.814C182.667 294.195 199.986 288.109 218.56 290.033C234.007 291.633 247.919 298.424 262.308 303.491C296.657 315.587 338.252 317.291 369.661 298.881C389.817 287.061 403.925 267.879 410.179 247.24C415.178 230.753 415.814 215.333 412.07 198.494C408.222 181.207 401.725 163.787 403.738 145.776C405.142 133.223 410.787 121.117 409.748 108.526C409.065 100.164 405.442 92.3157 401.013 85.239C384.855 59.3803 357.79 42.0649 329.171 32.531C302.237 23.5495 274.451 17.0539 246.412 19.2159C188.425 23.6829 176.61 14.3109 117.349 1.41482C79.097 -6.90951 36.304 22.7685 13.9198 57.1421C11.6355 60.647 9.62274 64.3235 7.90016 68.1332Z" fill="#EDEDEF"/>
<path opacity="0.81" d="M47.791 94.7062C46.602 108.317 51.1144 122.346 47.3416 135.823C42.8292 151.967 29.7507 164.053 24.4238 179.902C16.5505 203.313 16.925 229.553 26.4928 252.373C31.0988 263.374 37.83 273.584 47.0233 280.651C61.1971 291.547 79.7617 293.938 97.2309 292.557C123.219 290.499 150.65 279.051 176.778 282.175C191.196 283.899 195.605 299.776 203.048 310.253C211.473 322.101 222.942 331.407 235.627 337.597C258.985 349.008 287.024 350.084 310.896 339.74C336.389 328.692 358.604 301.729 357.144 271.222C356.47 257.107 350.918 243.096 353.483 229.229C356.713 211.828 369.595 195.97 378.938 181.797C389.255 166.139 395.499 147.471 396.716 128.423C396.726 128.204 396.744 127.994 396.754 127.775C398.673 94.9158 378.292 64.9425 347.557 54.6561L282.155 32.7691C215.808 10.5582 149.498 11.3011 88.4869 43.8841C75.2867 50.9321 53.7826 71.9429 49.3544 86.4295C48.5118 89.163 48.0344 91.9251 47.791 94.7062Z" fill="#EDEDEF"/>
<path opacity="0.58" d="M53.5674 49.5988C54.3429 49.5988 54.9716 48.9591 54.9716 48.1701C54.9716 47.3811 54.3429 46.7415 53.5674 46.7415C52.7918 46.7415 52.1631 47.3811 52.1631 48.1701C52.1631 48.9591 52.7918 49.5988 53.5674 49.5988Z" fill="#AAAAAA"/>
<g opacity="0.66">
<path d="M163.167 126.508L155.715 125.927C155.143 120.222 153.365 114.841 150.612 110.079L156.286 105.126C159.16 102.621 159.487 98.2207 157.025 95.2967C154.563 92.3727 150.238 92.0394 147.364 94.5443L141.69 99.497C137.487 96.0111 132.525 93.4014 127.067 91.9632L127.638 84.3818C127.929 80.5434 125.101 77.1909 121.328 76.8956C117.556 76.6003 114.26 79.4767 113.97 83.315L113.399 90.8965C107.791 91.4775 102.502 93.2871 97.8209 96.0873L92.9527 90.3155C90.4905 87.3915 86.1654 87.0581 83.2913 89.5631C80.4172 92.068 80.0895 96.4682 82.5517 99.3922L87.4199 105.164C83.9934 109.44 81.4283 114.488 80.0146 120.041L72.5626 119.46C68.7898 119.165 65.4944 122.041 65.2042 125.88C64.914 129.718 67.7413 133.07 71.5141 133.366L78.9661 133.947C79.5372 139.652 81.3159 145.033 84.0683 149.795L78.395 154.748C75.521 157.253 75.1933 161.653 77.6555 164.577C80.1176 167.501 84.4428 167.835 87.3169 165.33L92.9902 160.377C97.1936 163.863 102.155 166.473 107.613 167.911L107.042 175.492C106.752 179.33 109.579 182.683 113.352 182.978C117.125 183.274 120.42 180.397 120.711 176.559L121.282 168.977C126.889 168.396 132.179 166.587 136.86 163.787L141.728 169.558C144.19 172.482 148.515 172.816 151.389 170.311C154.263 167.806 154.591 163.406 152.129 160.482L147.261 154.71C150.687 150.433 153.252 145.386 154.666 139.833L162.118 140.414C165.891 140.709 169.186 137.833 169.476 133.994C169.767 130.156 166.939 126.803 163.167 126.508ZM115.225 158.263C99.8524 157.072 88.3373 143.424 89.5169 127.775C90.6871 112.136 104.103 100.421 119.484 101.621C134.856 102.811 146.371 116.46 145.192 132.109C144.012 147.757 130.597 159.463 115.225 158.263Z" fill="white"/>
<path d="M322.356 340.255C321.457 340.255 320.558 340.036 319.734 339.598C318.377 338.883 317.384 337.674 316.926 336.197L315.587 331.902C312.123 332.264 308.687 331.959 305.345 331.007L303.304 335.007C301.853 337.845 298.399 338.96 295.609 337.483C294.251 336.769 293.259 335.559 292.8 334.083C292.342 332.607 292.473 331.035 293.175 329.654L295.216 325.654C292.519 323.425 290.301 320.73 288.597 317.653L284.375 319.015C281.369 319.987 278.158 318.282 277.203 315.234C276.745 313.758 276.876 312.186 277.578 310.805C278.28 309.424 279.469 308.415 280.92 307.948L285.142 306.586C284.787 303.072 285.086 299.567 286.022 296.166L282.09 294.09C280.733 293.376 279.74 292.166 279.282 290.69C278.823 289.214 278.954 287.642 279.656 286.261C280.358 284.88 281.547 283.87 282.998 283.404C284.449 282.937 285.994 283.07 287.352 283.785L291.284 285.861C293.474 283.118 296.124 280.861 299.148 279.127L297.809 274.832C296.863 271.774 298.53 268.508 301.525 267.536C302.977 267.069 304.521 267.203 305.879 267.917C307.236 268.631 308.229 269.841 308.687 271.317L310.026 275.613C313.49 275.251 316.926 275.556 320.268 276.508L322.309 272.508C323.76 269.67 327.214 268.555 330.004 270.031C332.794 271.508 333.889 275.022 332.438 277.861L330.397 281.861C333.094 284.089 335.312 286.785 337.016 289.861L341.238 288.499C342.689 288.033 344.234 288.166 345.592 288.88C346.949 289.595 347.941 290.804 348.4 292.28C349.346 295.338 347.679 298.605 344.684 299.576L340.461 300.938C340.817 304.453 340.518 307.958 339.581 311.358L343.513 313.434C346.303 314.91 347.398 318.425 345.947 321.263C345.245 322.644 344.056 323.654 342.605 324.121C341.154 324.587 339.609 324.454 338.252 323.74L334.32 321.663C332.12 324.406 329.48 326.664 326.456 328.397L327.795 332.692C328.254 334.169 328.122 335.75 327.42 337.121C326.718 338.502 325.529 339.512 324.078 339.979C323.516 340.16 322.936 340.255 322.356 340.255ZM316.898 329.807L318.704 335.616C319.013 336.607 319.687 337.426 320.596 337.902C321.504 338.379 322.543 338.474 323.526 338.159C324.499 337.845 325.305 337.159 325.773 336.236C326.241 335.312 326.334 334.254 326.025 333.254L324.219 327.445L324.911 327.073C328.225 325.302 331.062 322.873 333.346 319.854L333.824 319.225L339.141 322.035C340.049 322.511 341.089 322.606 342.072 322.292C343.045 321.978 343.85 321.292 344.318 320.368C345.292 318.463 344.562 316.101 342.68 315.101L337.363 312.291L337.597 311.529C338.711 307.891 339.029 304.138 338.542 300.357L338.439 299.567L344.15 297.728C346.163 297.081 347.286 294.881 346.65 292.823C346.341 291.833 345.667 291.014 344.758 290.537C343.85 290.061 342.811 289.966 341.828 290.28L336.117 292.119L335.752 291.414C334.011 288.042 331.624 285.156 328.656 282.832L328.038 282.346L330.8 276.937C331.774 275.022 331.043 272.66 329.162 271.67C327.28 270.679 324.958 271.422 323.985 273.336L321.223 278.746L320.474 278.508C316.898 277.375 313.209 277.06 309.492 277.546L308.715 277.651L306.909 271.841C306.6 270.851 305.926 270.031 305.017 269.555C304.109 269.079 303.07 268.984 302.087 269.298C300.074 269.946 298.951 272.146 299.588 274.203L301.394 280.013L300.702 280.384C297.388 282.156 294.551 284.585 292.267 287.604L291.789 288.233L286.472 285.423C285.564 284.947 284.524 284.851 283.541 285.166C282.568 285.48 281.763 286.166 281.295 287.09C280.826 288.014 280.733 289.071 281.042 290.071C281.351 291.061 282.025 291.88 282.933 292.357L288.25 295.166L288.016 295.928C286.902 299.567 286.584 303.319 287.071 307.1L287.174 307.891L281.463 309.729C280.489 310.043 279.684 310.729 279.216 311.653C278.748 312.577 278.654 313.634 278.963 314.634C279.6 316.682 281.763 317.825 283.785 317.177L289.496 315.339L289.861 316.044C291.602 319.415 293.989 322.301 296.957 324.625L297.575 325.111L294.813 330.521C294.345 331.445 294.251 332.502 294.56 333.502C294.869 334.493 295.543 335.312 296.451 335.788C298.333 336.778 300.655 336.026 301.628 334.121L304.39 328.711L305.139 328.949C308.715 330.083 312.404 330.397 316.111 329.911L316.898 329.807ZM312.778 324.492C309.558 324.492 306.356 323.701 303.407 322.149C298.576 319.596 295.01 315.282 293.362 310.005C291.714 304.729 292.192 299.109 294.701 294.195C297.21 289.28 301.451 285.651 306.637 283.975C311.833 282.299 317.347 282.785 322.178 285.337C327.008 287.89 330.575 292.204 332.223 297.481C333.871 302.757 333.393 308.377 330.884 313.291C328.375 318.206 324.134 321.835 318.948 323.511C316.935 324.168 314.847 324.492 312.778 324.492ZM312.825 284.899C310.943 284.899 309.062 285.194 307.217 285.785C302.499 287.299 298.651 290.595 296.376 295.062C294.102 299.529 293.662 304.624 295.159 309.424C296.648 314.225 299.887 318.139 304.278 320.454C308.669 322.768 313.687 323.206 318.396 321.692C323.114 320.177 326.962 316.882 329.237 312.415C331.511 307.948 331.951 302.853 330.454 298.052C328.965 293.252 325.726 289.337 321.335 287.023C318.658 285.613 315.755 284.899 312.825 284.899Z" fill="white"/>
<path d="M371.514 304.7C371.168 304.7 370.812 304.672 370.456 304.624C366.44 304.033 363.65 300.224 364.24 296.147L365.139 289.88C360.608 288.232 356.507 285.756 352.931 282.489L347.941 286.27C346.368 287.461 344.43 287.966 342.483 287.68C340.536 287.394 338.823 286.356 337.643 284.756C335.218 281.451 335.892 276.756 339.141 274.289L344.131 270.508C342.071 266.088 340.901 261.383 340.639 256.497L334.479 255.583C330.462 254.992 327.673 251.183 328.262 247.106C328.543 245.125 329.564 243.382 331.136 242.182C332.709 240.991 334.647 240.487 336.594 240.772L342.755 241.687C344.374 237.077 346.808 232.905 350.019 229.267L346.303 224.2C345.132 222.6 344.636 220.628 344.917 218.647C345.198 216.666 346.218 214.923 347.801 213.723C349.373 212.533 351.311 212.028 353.259 212.313C355.206 212.599 356.919 213.637 358.099 215.247L361.815 220.314C366.159 218.219 370.784 217.028 375.587 216.761L376.485 210.494C377.066 206.408 380.82 203.57 384.817 204.17C386.765 204.456 388.478 205.494 389.657 207.094C390.828 208.694 391.324 210.666 391.043 212.647L390.144 218.914C394.675 220.562 398.776 223.038 402.352 226.305L407.342 222.524C410.59 220.057 415.206 220.733 417.631 224.048C420.055 227.353 419.381 232.048 416.133 234.515L411.152 238.296C413.212 242.715 414.382 247.42 414.644 252.306L420.804 253.221C424.82 253.811 427.601 257.621 427.02 261.698C426.44 265.783 422.686 268.622 418.688 268.022L412.528 267.117C410.909 271.727 408.465 275.898 405.264 279.537L408.98 284.613C411.405 287.918 410.731 292.614 407.482 295.081C405.91 296.271 403.972 296.776 402.024 296.49C400.077 296.204 398.364 295.166 397.184 293.557L393.468 288.49C389.124 290.585 384.499 291.776 379.696 292.042L378.798 298.309C378.255 302.014 375.1 304.7 371.514 304.7ZM353.043 280.013L353.614 280.556C357.322 284.08 361.637 286.699 366.459 288.337L367.198 288.585L366.084 296.414C365.654 299.452 367.732 302.29 370.718 302.729C373.705 303.167 376.495 301.052 376.925 298.014L378.039 290.185L378.826 290.156C383.9 289.985 388.777 288.728 393.308 286.413L394.011 286.061L398.663 292.404C399.534 293.595 400.817 294.376 402.268 294.585C403.719 294.804 405.161 294.423 406.331 293.538C408.756 291.699 409.252 288.194 407.445 285.737L402.792 279.394L403.326 278.813C406.79 275.051 409.364 270.65 410.974 265.745L411.218 264.993L418.913 266.126C421.909 266.564 424.689 264.45 425.12 261.412C425.551 258.373 423.472 255.535 420.486 255.097L412.79 253.964L412.762 253.164C412.594 248.001 411.358 243.039 409.083 238.429L408.737 237.715L414.972 232.981C417.397 231.143 417.893 227.648 416.086 225.181C415.215 223.99 413.933 223.209 412.482 223C411.03 222.781 409.589 223.162 408.419 224.048L402.184 228.781L401.612 228.238C397.905 224.714 393.589 222.095 388.768 220.457L388.028 220.209L389.142 212.38C389.348 210.904 388.983 209.437 388.113 208.247C387.233 207.056 385.959 206.275 384.508 206.065C381.513 205.618 378.732 207.742 378.301 210.78L377.187 218.609L376.401 218.638C371.327 218.809 366.449 220.066 361.918 222.381L361.216 222.733L356.563 216.39C355.693 215.199 354.41 214.418 352.959 214.209C351.508 213.999 350.066 214.371 348.896 215.257C347.726 216.142 346.958 217.447 346.752 218.923C346.546 220.4 346.911 221.866 347.782 223.057L352.435 229.4L351.901 229.981C348.437 233.753 345.863 238.144 344.252 243.049L344.009 243.801L336.314 242.668C334.862 242.458 333.421 242.83 332.251 243.715C331.08 244.601 330.313 245.906 330.107 247.382C329.676 250.421 331.754 253.259 334.741 253.697L342.436 254.83L342.464 255.63C342.633 260.793 343.869 265.755 346.144 270.365L346.49 271.079L340.255 275.813C339.085 276.698 338.317 278.003 338.111 279.48C337.905 280.956 338.27 282.423 339.141 283.613C340.012 284.804 341.294 285.585 342.745 285.794C344.196 286.004 345.638 285.632 346.808 284.747L353.043 280.013ZM377.655 281.927C369.398 281.927 361.235 278.108 355.927 270.869C346.995 258.697 349.467 241.401 361.431 232.315C367.226 227.914 374.36 226.076 381.513 227.133C388.674 228.191 394.994 232.019 399.319 237.915C403.644 243.811 405.451 251.068 404.412 258.345C403.372 265.631 399.609 272.06 393.814 276.46C388.965 280.146 383.291 281.927 377.655 281.927ZM377.571 228.743C372.179 228.743 366.955 230.496 362.555 233.839C351.414 242.296 349.121 258.393 357.434 269.727C365.747 281.061 381.569 283.394 392.709 274.936C398.102 270.841 401.603 264.85 402.577 258.078C403.541 251.297 401.856 244.544 397.83 239.058C393.805 233.572 387.916 230 381.26 229.019C380.015 228.838 378.788 228.743 377.571 228.743Z" fill="white"/>
</g>
<g opacity="0.81">
<path d="M250.466 308.529H231.236C230.722 308.529 230.3 308.1 230.3 307.576C230.3 307.053 230.722 306.624 231.236 306.624H250.466C250.981 306.624 251.402 307.053 251.402 307.576C251.402 308.11 250.981 308.529 250.466 308.529Z" fill="white"/>
<path d="M250.466 328.873H231.236C230.722 328.873 230.3 328.445 230.3 327.921C230.3 327.397 230.722 326.968 231.236 326.968H250.466C250.981 326.968 251.402 327.397 251.402 327.921C251.402 328.445 250.981 328.873 250.466 328.873Z" fill="white"/>
<path d="M264.986 349.408H146.212C144.808 349.408 143.675 348.246 143.675 346.827V284.108C143.675 282.68 144.817 281.527 146.212 281.527H264.986C266.39 281.527 267.523 282.689 267.523 284.108V346.827C267.523 348.255 266.381 349.408 264.986 349.408ZM146.212 283.432C145.847 283.432 145.548 283.737 145.548 284.108V346.827C145.548 347.198 145.847 347.503 146.212 347.503H264.986C265.351 347.503 265.651 347.198 265.651 346.827V284.108C265.651 283.737 265.351 283.432 264.986 283.432H146.212Z" fill="white"/>
<path opacity="0.66" d="M264.986 349.408H146.212C144.808 349.408 143.675 348.246 143.675 346.827V284.108C143.675 282.68 144.817 281.527 146.212 281.527H264.986C266.39 281.527 267.523 282.689 267.523 284.108V346.827C267.523 348.255 266.381 349.408 264.986 349.408ZM146.212 283.432C145.847 283.432 145.548 283.737 145.548 284.108V346.827C145.548 347.198 145.847 347.503 146.212 347.503H264.986C265.351 347.503 265.651 347.198 265.651 346.827V284.108C265.651 283.737 265.351 283.432 264.986 283.432H146.212Z" fill="white"/>
<path d="M250.466 298.662H158.823C158.308 298.662 157.887 298.233 157.887 297.709C157.887 297.185 158.308 296.757 158.823 296.757H250.466C250.981 296.757 251.402 297.185 251.402 297.709C251.402 298.233 250.981 298.662 250.466 298.662Z" fill="white"/>
<path d="M250.466 318.406H158.823C158.308 318.406 157.887 317.977 157.887 317.453C157.887 316.93 158.308 316.501 158.823 316.501H250.466C250.981 316.501 251.402 316.93 251.402 317.453C251.402 317.977 250.981 318.406 250.466 318.406Z" fill="white"/>
<path d="M208.235 308.529H158.823C158.308 308.529 157.887 308.1 157.887 307.576C157.887 307.053 158.308 306.624 158.823 306.624H208.235C208.75 306.624 209.171 307.053 209.171 307.576C209.171 308.11 208.75 308.529 208.235 308.529Z" fill="white"/>
<path d="M208.235 328.873H158.823C158.308 328.873 157.887 328.445 157.887 327.921C157.887 327.397 158.308 326.968 158.823 326.968H208.235C208.75 326.968 209.171 327.397 209.171 327.921C209.171 328.445 208.75 328.873 208.235 328.873Z" fill="white"/>
<path d="M192.142 338.293H158.823C158.308 338.293 157.887 337.864 157.887 337.34C157.887 336.817 158.308 336.388 158.823 336.388H192.142C192.657 336.388 193.078 336.817 193.078 337.34C193.078 337.864 192.666 338.293 192.142 338.293Z" fill="white"/>
</g>
<g opacity="0.81">
<path d="M66.4682 247.554H44.8517C44.3368 247.554 43.9155 247.125 43.9155 246.601C43.9155 246.078 44.3368 245.649 44.8517 245.649H66.4682C66.9831 245.649 67.4044 246.078 67.4044 246.601C67.4044 247.125 66.9831 247.554 66.4682 247.554Z" fill="white"/>
<path d="M66.4682 224.695H44.8517C44.3368 224.695 43.9155 224.267 43.9155 223.743C43.9155 223.219 44.3368 222.79 44.8517 222.79H66.4682C66.9831 222.79 67.4044 223.219 67.4044 223.743C67.4044 224.267 66.9831 224.695 66.4682 224.695Z" fill="white"/>
<path d="M162.23 275.765H28.3374C26.9331 275.765 25.8003 274.603 25.8003 273.184V202.294C25.8003 200.865 26.9424 199.713 28.3374 199.713H162.23C163.635 199.713 164.768 200.875 164.768 202.294V273.184C164.768 274.603 163.625 275.765 162.23 275.765ZM28.3374 201.608C27.9722 201.608 27.6727 201.913 27.6727 202.284V273.175C27.6727 273.546 27.9722 273.851 28.3374 273.851H162.23C162.596 273.851 162.895 273.546 162.895 273.175V202.284C162.895 201.913 162.596 201.608 162.23 201.608H28.3374Z" fill="white"/>
<path opacity="0.66" d="M162.23 275.765H28.3374C26.9331 275.765 25.8003 274.603 25.8003 273.184V202.294C25.8003 200.865 26.9424 199.713 28.3374 199.713H162.23C163.635 199.713 164.768 200.875 164.768 202.294V273.184C164.768 274.603 163.625 275.765 162.23 275.765ZM28.3374 201.608C27.9722 201.608 27.6727 201.913 27.6727 202.284V273.175C27.6727 273.546 27.9722 273.851 28.3374 273.851H162.23C162.596 273.851 162.895 273.546 162.895 273.175V202.284C162.895 201.913 162.596 201.608 162.23 201.608H28.3374Z" fill="white"/>
<path d="M147.851 258.64H44.8517C44.3368 258.64 43.9155 258.212 43.9155 257.688C43.9155 257.164 44.3368 256.735 44.8517 256.735H147.851C148.366 256.735 148.787 257.164 148.787 257.688C148.787 258.221 148.366 258.64 147.851 258.64Z" fill="white"/>
<path d="M147.851 236.458H44.8517C44.3368 236.458 43.9155 236.03 43.9155 235.506C43.9155 234.982 44.3368 234.553 44.8517 234.553H147.851C148.366 234.553 148.787 234.982 148.787 235.506C148.787 236.03 148.366 236.458 147.851 236.458Z" fill="white"/>
<path d="M147.851 247.554H92.3161C91.8012 247.554 91.3799 247.125 91.3799 246.601C91.3799 246.078 91.8012 245.649 92.3161 245.649H147.851C148.365 245.649 148.787 246.078 148.787 246.601C148.787 247.125 148.365 247.554 147.851 247.554Z" fill="white"/>
<path d="M147.851 224.695H92.3161C91.8012 224.695 91.3799 224.267 91.3799 223.743C91.3799 223.219 91.8012 222.79 92.3161 222.79H147.851C148.365 222.79 148.787 223.219 148.787 223.743C148.787 224.267 148.365 224.695 147.851 224.695Z" fill="white"/>
<path d="M147.851 214.104H110.403C109.889 214.104 109.467 213.676 109.467 213.152C109.467 212.628 109.889 212.199 110.403 212.199H147.851C148.366 212.199 148.787 212.628 148.787 213.152C148.787 213.676 148.366 214.104 147.851 214.104Z" fill="white"/>
</g>
<path opacity="0.14" d="M318.18 314.253L215.743 252.468C214.919 251.973 214.647 250.887 215.134 250.049L297.827 108.155C298.314 107.317 299.381 107.04 300.205 107.536L402.633 169.32C403.457 169.816 403.729 170.902 403.242 171.74L320.549 313.634C320.062 314.472 319.004 314.748 318.18 314.253Z" fill="#AAAAAA"/>
<path d="M315.512 308.567L213.075 246.782C212.251 246.287 211.979 245.201 212.466 244.363L295.159 102.469C295.646 101.631 296.713 101.354 297.537 101.85L399.975 163.634C400.798 164.13 401.07 165.215 400.583 166.054L317.89 307.948C317.403 308.786 316.336 309.062 315.512 308.567Z" fill="#5B913B"/>
<path opacity="0.14" d="M344.936 306.824L227.819 284.861C226.874 284.68 226.256 283.766 226.425 282.804L255.821 120.575C255.999 119.613 256.897 118.984 257.843 119.156L374.96 141.119C375.905 141.3 376.523 142.214 376.354 143.176L346.958 305.405C346.78 306.367 345.882 307.005 344.936 306.824Z" fill="#AAAAAA"/>
<path d="M253.64 114.308L223.615 279.998L344.136 302.603L374.161 136.913L253.64 114.308Z" fill="white"/>
<path opacity="0.39" d="M342.436 302.262L225.32 280.299C224.374 280.118 223.756 279.203 223.934 278.242L253.33 116.012C253.508 115.051 254.407 114.422 255.353 114.593L372.469 136.557C373.415 136.738 374.033 137.652 373.855 138.614L344.459 300.843C344.281 301.805 343.382 302.443 342.436 302.262Z" fill="#5B913B"/>
<path d="M355.927 156.406C355.871 156.406 355.815 156.396 355.759 156.387L326.447 150.891C325.941 150.796 325.604 150.3 325.698 149.786C325.791 149.272 326.278 148.929 326.793 149.024L356.105 154.52C356.61 154.615 356.947 155.11 356.854 155.625C356.76 156.082 356.367 156.406 355.927 156.406Z" fill="white"/>
<path d="M354.195 165.93C354.139 165.93 354.083 165.92 354.027 165.911L324.715 160.415C324.209 160.32 323.872 159.825 323.966 159.311C324.059 158.796 324.546 158.453 325.061 158.549L354.373 164.044C354.878 164.139 355.216 164.635 355.122 165.149C355.038 165.616 354.644 165.93 354.195 165.93Z" fill="white"/>
<path d="M352.323 176.292C352.266 176.292 352.21 176.283 352.154 176.273L322.842 170.778C322.337 170.682 322 170.187 322.093 169.673C322.187 169.159 322.664 168.816 323.188 168.911L352.5 174.406C353.006 174.502 353.343 174.997 353.249 175.511C353.156 175.968 352.763 176.292 352.323 176.292Z" fill="white"/>
<path opacity="0.14" d="M306.964 185.093L256.738 175.674C255.718 175.483 255.044 174.483 255.231 173.454L265.192 118.499C265.379 117.46 266.362 116.775 267.373 116.965L317.6 126.385C318.62 126.575 319.294 127.575 319.107 128.604L309.146 183.56C308.959 184.598 307.985 185.284 306.964 185.093Z" fill="#AAAAAA"/>
<path d="M305.12 181.902L257.234 172.921C256.214 172.73 255.54 171.73 255.727 170.702L265.154 118.67C265.342 117.632 266.325 116.946 267.336 117.137L315.222 126.118C316.242 126.308 316.916 127.309 316.729 128.337L307.301 180.369C307.114 181.407 306.141 182.093 305.12 181.902Z" fill="#383838"/>
<path opacity="0.07" d="M315.84 133.252L264.266 123.585L265.164 118.622C265.342 117.613 266.297 116.946 267.29 117.136L315.344 126.147C316.299 126.328 316.926 127.261 316.748 128.223L315.84 133.252Z" fill="#FAFAFA"/>
<path d="M278.701 149.462C278.336 149.462 277.971 149.424 277.597 149.358L276.885 149.224C273.093 148.51 270.575 144.795 271.277 140.938L273.075 130.994C273.215 130.213 273.955 129.709 274.713 129.852C275.481 129.994 275.977 130.737 275.836 131.518L274.039 141.462C273.618 143.767 275.125 145.995 277.4 146.424L278.111 146.557C279.871 146.891 281.575 145.7 281.903 143.9L286.462 118.737C286.799 116.889 285.592 115.098 283.766 114.755L282.549 114.527C280.611 114.165 278.757 115.47 278.392 117.432L278.28 118.051C278.139 118.832 277.4 119.337 276.642 119.194C275.883 119.051 275.378 118.308 275.518 117.527L275.631 116.908C276.267 113.393 279.6 111.06 283.054 111.708L284.271 111.936C287.614 112.565 289.832 115.841 289.215 119.241L284.655 144.405C284.122 147.376 281.566 149.462 278.701 149.462Z" fill="#AAAAAA"/>
<path d="M283.57 128.328C283.541 128.328 283.513 128.328 283.485 128.318L264.771 124.813C264.518 124.765 264.35 124.518 264.396 124.261C264.443 124.004 264.687 123.823 264.939 123.88L283.654 127.385C283.907 127.432 284.075 127.68 284.028 127.937C283.991 128.166 283.794 128.328 283.57 128.328Z" fill="white"/>
<path d="M340.789 226.753C340.733 226.753 340.676 226.753 340.62 226.734L251.046 209.932C250.541 209.837 250.204 209.342 250.297 208.818C250.391 208.304 250.868 207.961 251.393 208.056L340.967 224.857C341.472 224.952 341.809 225.448 341.716 225.962C341.631 226.429 341.238 226.753 340.789 226.753Z" fill="white"/>
<path d="M334.385 262.098C334.329 262.098 334.273 262.098 334.217 262.079L244.643 245.278C244.137 245.182 243.8 244.687 243.894 244.163C243.988 243.649 244.474 243.297 244.989 243.401L334.563 260.202C335.069 260.298 335.406 260.793 335.312 261.317C335.228 261.774 334.835 262.098 334.385 262.098Z" fill="white"/>
<path d="M290.357 235.563C290.3 235.563 290.244 235.563 290.188 235.544L247.845 227.6C247.339 227.505 247.002 227.01 247.096 226.496C247.189 225.981 247.676 225.629 248.191 225.734L290.535 233.677C291.04 233.772 291.377 234.267 291.283 234.791C291.199 235.248 290.806 235.563 290.357 235.563Z" fill="white"/>
<path d="M296.189 203.361C296.133 203.361 296.077 203.361 296.02 203.342L253.677 195.398C253.171 195.303 252.834 194.808 252.928 194.293C253.021 193.779 253.508 193.436 254.023 193.532L296.367 201.475C296.872 201.57 297.209 202.065 297.116 202.589C297.031 203.037 296.638 203.361 296.189 203.361Z" fill="white"/>
<path d="M337.615 244.287C337.559 244.287 337.503 244.287 337.447 244.268L297.097 236.706C296.591 236.61 296.254 236.115 296.348 235.591C296.442 235.077 296.919 234.734 297.443 234.829L337.793 242.392C338.298 242.487 338.635 242.982 338.542 243.506C338.448 243.963 338.055 244.287 337.615 244.287Z" fill="white"/>
<path d="M328.132 57.0755H278.346C276.623 57.0755 275.228 55.6563 275.228 53.9039V36.96C275.228 35.2075 276.623 33.7883 278.346 33.7883H328.132C329.854 33.7883 331.249 35.2075 331.249 36.96V53.9039C331.249 55.6563 329.854 57.0755 328.132 57.0755Z" fill="#383838"/>
<path d="M365.636 82.4674H295.993C294.27 82.4674 292.875 81.0483 292.875 79.2958V54.1038C292.875 52.3513 294.27 50.9321 295.993 50.9321H365.636C367.358 50.9321 368.753 52.3513 368.753 54.1038V79.2958C368.753 81.0483 367.358 82.4674 365.636 82.4674Z" fill="#5B913B"/>
<path d="M311.421 75.8003H388.544C390.875 75.8003 392.775 77.7433 392.775 80.1053V104.135C392.775 106.507 390.866 108.44 388.544 108.44H311.421C309.09 108.44 307.189 106.497 307.189 104.135V80.1053C307.18 77.7338 309.09 75.8003 311.421 75.8003Z" fill="white"/>
<path opacity="0.74" d="M311.421 75.8003H388.544C390.875 75.8003 392.775 77.7433 392.775 80.1053V104.135C392.775 106.507 390.866 108.44 388.544 108.44H311.421C309.09 108.44 307.189 106.497 307.189 104.135V80.1053C307.18 77.7338 309.09 75.8003 311.421 75.8003Z" fill="#AAAAAA"/>
<path d="M365.608 95.9442C363.557 95.9442 361.891 94.2489 361.891 92.163C361.891 90.0772 363.557 88.3818 365.608 88.3818C367.658 88.3818 369.324 90.0772 369.324 92.163C369.324 94.2489 367.658 95.9442 365.608 95.9442ZM365.608 89.3343C364.072 89.3343 362.827 90.601 362.827 92.163C362.827 93.725 364.072 94.9918 365.608 94.9918C367.143 94.9918 368.388 93.725 368.388 92.163C368.388 90.601 367.143 89.3343 365.608 89.3343Z" fill="white"/>
<path d="M350.264 95.9442C348.213 95.9442 346.547 94.2489 346.547 92.163C346.547 90.0772 348.213 88.3818 350.264 88.3818C352.314 88.3818 353.98 90.0772 353.98 92.163C353.98 94.2489 352.314 95.9442 350.264 95.9442ZM350.264 89.3343C348.728 89.3343 347.483 90.601 347.483 92.163C347.483 93.725 348.728 94.9918 350.264 94.9918C351.799 94.9918 353.044 93.725 353.044 92.163C353.044 90.601 351.799 89.3343 350.264 89.3343Z" fill="white"/>
<path d="M335.968 95.9442C333.918 95.9442 332.251 94.2489 332.251 92.163C332.251 90.0772 333.918 88.3818 335.968 88.3818C338.018 88.3818 339.685 90.0772 339.685 92.163C339.685 94.2489 338.018 95.9442 335.968 95.9442ZM335.968 89.3343C334.433 89.3343 333.188 90.601 333.188 92.163C333.188 93.725 334.433 94.9918 335.968 94.9918C337.503 94.9918 338.749 93.725 338.749 92.163C338.749 90.601 337.494 89.3343 335.968 89.3343Z" fill="white"/>
<path d="M123.819 36.074H243.314C245.72 36.074 247.676 38.055 247.676 40.5123V219.571C247.676 228.019 240.945 234.867 232.641 234.867H149.667C131.973 234.867 117.631 220.276 117.631 202.275V42.3601C117.631 38.8837 120.402 36.074 123.819 36.074Z" fill="white"/>
<path opacity="0.39" d="M119.148 36.074H245.327C246.618 36.074 247.667 37.1407 247.667 38.4551V220.276C247.667 228.333 241.254 234.858 233.334 234.858H146.812C130.691 234.858 117.622 221.562 117.622 205.161V37.6169C117.631 36.7597 118.314 36.074 119.148 36.074Z" fill="#AAAAAA"/>
<path opacity="0.39" d="M130.213 36.074H245.822C246.843 36.074 247.667 36.9121 247.667 37.9503V220.781C247.667 228.562 241.469 234.867 233.821 234.867H157.877C142.028 234.867 129.174 221.8 129.174 205.665V37.1217C129.183 36.5407 129.642 36.074 130.213 36.074Z" fill="#AAAAAA"/>
<path d="M147.327 234.829V234.867H251.777C263.797 234.867 273.543 224.952 273.543 212.723V204.313H167.913V212.723C167.913 224.543 158.804 234.201 147.327 234.829Z" fill="#383838"/>
<g opacity="0.28">
<path d="M161.173 234.829V234.867H254.164C264.865 234.867 273.543 224.952 273.543 212.723V204.313H179.503V212.723C179.503 224.543 171.387 234.201 161.173 234.829Z" fill="#AAAAAA"/>
</g>
<path d="M227.932 181.388H152.831C152.316 181.388 151.895 180.959 151.895 180.435C151.895 179.912 152.316 179.483 152.831 179.483H227.932C228.447 179.483 228.868 179.912 228.868 180.435C228.868 180.969 228.447 181.388 227.932 181.388Z" fill="white"/>
<path d="M229.505 149.224H151.427C150.912 149.224 150.491 148.795 150.491 148.271C150.491 147.747 150.912 147.319 151.427 147.319H229.505C230.02 147.319 230.441 147.747 230.441 148.271C230.441 148.795 230.029 149.224 229.505 149.224Z" fill="white"/>
<path d="M190.382 165.292H150.482C149.967 165.292 149.545 164.863 149.545 164.339C149.545 163.815 149.967 163.387 150.482 163.387H190.382C190.897 163.387 191.318 163.815 191.318 164.339C191.318 164.863 190.897 165.292 190.382 165.292Z" fill="white"/>
<path d="M187.358 165.292H153.506C152.991 165.292 152.569 164.863 152.569 164.339C152.569 163.815 152.991 163.387 153.506 163.387H187.358C187.873 163.387 188.294 163.815 188.294 164.339C188.294 164.863 187.873 165.292 187.358 165.292Z" fill="white"/>
<path d="M203.366 114.822H151.97C151.455 114.822 151.034 114.393 151.034 113.869C151.034 113.346 151.455 112.917 151.97 112.917H203.366C203.881 112.917 204.303 113.346 204.303 113.869C204.303 114.403 203.891 114.822 203.366 114.822Z" fill="white"/>
<path d="M227.193 114.822H211.54C211.025 114.822 210.604 114.393 210.604 113.869C210.604 113.346 211.025 112.917 211.54 112.917H227.193C227.708 112.917 228.129 113.346 228.129 113.869C228.129 114.403 227.717 114.822 227.193 114.822Z" fill="white"/>
<path d="M229.505 130.899H173.849C173.334 130.899 172.913 130.47 172.913 129.946C172.913 129.422 173.334 128.994 173.849 128.994H229.505C230.02 128.994 230.441 129.422 230.441 129.946C230.441 130.47 230.029 130.899 229.505 130.899Z" fill="white"/>
<path d="M168.353 130.899H151.427C150.912 130.899 150.491 130.47 150.491 129.946C150.491 129.422 150.912 128.994 151.427 128.994H168.353C168.868 128.994 169.289 129.422 169.289 129.946C169.289 130.47 168.868 130.899 168.353 130.899Z" fill="white"/>
<path d="M227.932 101.221H152.831C152.316 101.221 151.895 100.792 151.895 100.269C151.895 99.7448 152.316 99.3162 152.831 99.3162H227.932C228.447 99.3162 228.868 99.7448 228.868 100.269C228.868 100.792 228.447 101.221 227.932 101.221Z" fill="white"/>
<path d="M227.932 69.0475H152.831C152.316 69.0475 151.895 68.6189 151.895 68.095C151.895 67.5712 152.316 67.1426 152.831 67.1426H227.932C228.447 67.1426 228.868 67.5712 228.868 68.095C228.868 68.6189 228.447 69.0475 227.932 69.0475Z" fill="white"/>
<path d="M180.392 85.1151H151.97C151.455 85.1151 151.034 84.6865 151.034 84.1626C151.034 83.6388 151.455 83.2102 151.97 83.2102H180.392C180.907 83.2102 181.329 83.6388 181.329 84.1626C181.329 84.696 180.917 85.1151 180.392 85.1151Z" fill="white"/>
<path d="M227.361 85.1151H193.508C192.994 85.1151 192.572 84.6865 192.572 84.1626C192.572 83.6388 192.994 83.2102 193.508 83.2102H227.361C227.876 83.2102 228.297 83.6388 228.297 84.1626C228.297 84.696 227.876 85.1151 227.361 85.1151Z" fill="white"/>
<path opacity="0.21" d="M328.342 196.41C351.48 172.869 351.481 134.702 328.342 111.162C305.203 87.6212 267.688 87.6212 244.549 111.162C221.41 134.702 221.41 172.869 244.549 196.41C267.688 219.95 305.203 219.95 328.342 196.41Z" fill="white"/>
<path opacity="0.76" d="M240.018 158.119C237.949 158.119 236.273 156.414 236.273 154.31C236.273 123.898 260.596 99.1633 290.479 99.1633C292.547 99.1633 294.223 100.868 294.223 102.973C294.223 105.078 292.547 106.783 290.479 106.783C264.715 106.783 243.763 128.108 243.763 154.31C243.763 156.414 242.087 158.119 240.018 158.119Z" fill="white"/>
<path opacity="0.58" d="M286.453 215.98C252.75 215.98 225.329 188.083 225.329 153.795C225.329 119.508 252.75 91.6106 286.453 91.6106C320.155 91.6106 347.576 119.508 347.576 153.795C347.576 188.083 320.155 215.98 286.453 215.98ZM286.453 95.4108C254.81 95.4108 229.074 121.603 229.074 153.786C229.074 185.969 254.819 212.161 286.453 212.161C318.086 212.161 343.831 185.969 343.831 153.786C343.831 121.603 318.086 95.4108 286.453 95.4108Z" fill="#AAAAAA"/>
<path d="M340.911 196.979C340.995 196.893 341.098 196.817 341.192 196.741C350.217 184.855 355.591 169.958 355.591 153.786C355.591 114.936 324.631 83.4387 286.444 83.4387C248.257 83.4387 217.297 114.936 217.297 153.786C217.297 192.636 248.257 224.133 286.444 224.133C302.284 224.133 316.861 218.695 328.516 209.58L336.511 201.446L340.911 196.979ZM286.453 214.075C253.724 214.075 227.202 187.083 227.202 153.795C227.202 120.498 253.734 93.5155 286.453 93.5155C319.173 93.5155 345.704 120.508 345.704 153.795C345.704 187.083 319.173 214.075 286.453 214.075Z" fill="#AAAAAA"/>
<path d="M286.453 225.085C247.807 225.085 216.37 193.102 216.37 153.786C216.37 114.469 247.807 82.4861 286.453 82.4861C325.099 82.4861 356.536 114.469 356.536 153.786C356.536 169.691 351.49 184.75 341.941 197.322L341.763 197.503C341.669 197.569 341.622 197.607 341.585 197.646L329.096 210.332C316.748 219.99 302.003 225.085 286.453 225.085ZM286.453 84.4005C248.846 84.4005 218.242 115.526 218.242 153.795C218.242 192.064 248.837 223.19 286.453 223.19C301.572 223.19 315.905 218.237 327.907 208.875L340.255 196.312C340.34 196.226 340.433 196.141 340.536 196.074C349.786 183.854 354.663 169.234 354.663 153.795C354.663 115.526 324.059 84.4005 286.453 84.4005ZM286.453 215.028C253.265 215.028 226.266 187.559 226.266 153.795C226.266 120.031 253.265 92.5629 286.453 92.5629C319.641 92.5629 346.64 120.031 346.64 153.795C346.64 187.559 319.641 215.028 286.453 215.028ZM286.453 94.4583C254.295 94.4583 228.138 121.069 228.138 153.786C228.138 186.502 254.295 213.113 286.453 213.113C318.611 213.113 344.768 186.502 344.768 153.786C344.768 121.079 318.601 94.4583 286.453 94.4583Z" fill="#AAAAAA"/>
<path d="M339.198 207.98L336.52 205.256C335.49 204.208 335.49 202.503 336.52 201.456L328.525 209.589L328.394 209.723C327.364 210.77 327.364 212.475 328.394 213.523L331.652 216.837C332.719 215.009 335.855 211.418 339.198 207.98Z" fill="#5B913B"/>
<path d="M336.52 201.446C335.491 202.494 335.491 204.198 336.52 205.246L339.198 207.97C342.437 204.646 345.845 201.465 347.764 200.141L344.647 196.969C343.701 196.007 342.222 195.941 341.192 196.731C341.098 196.808 340.995 196.874 340.911 196.969L336.52 201.446Z" fill="#5B913B"/>
<path opacity="0.43" d="M336.52 201.446C335.491 202.494 335.491 204.198 336.52 205.246L339.198 207.97C342.437 204.646 345.845 201.465 347.764 200.141L344.647 196.969C343.701 196.007 342.222 195.941 341.192 196.731C341.098 196.808 340.995 196.874 340.911 196.969L336.52 201.446Z" fill="#AAAAAA"/>
<path d="M397.934 249.639L349.243 199.56C349.065 199.379 348.531 199.617 347.764 200.151C345.844 201.475 342.437 204.646 339.197 207.98C335.855 211.418 332.719 214.999 331.642 216.837C331.296 217.437 331.156 217.847 331.315 217.999L380.006 268.079C384.958 273.174 392.981 273.174 397.934 268.079C402.886 262.983 402.886 254.735 397.934 249.639Z" fill="#383838"/>
<path opacity="0.14" d="M397.934 249.639L349.243 199.56C348.587 198.884 343.036 203.941 338.271 208.942C334.217 213.189 392.981 273.165 397.934 268.079C402.886 262.983 402.886 254.735 397.934 249.639Z" fill="#AAAAAA"/>
<path d="M218.13 187.464H58.0703C48.7179 187.464 41.1348 179.749 41.1348 170.235C41.1348 160.72 48.7179 153.005 58.0703 153.005H218.13C227.482 153.005 235.065 160.72 235.065 170.235C235.056 179.759 227.482 187.464 218.13 187.464Z" fill="white"/>
<path d="M218.13 187.464H192.095L191.973 153.014H218.13C227.483 153.014 235.066 160.729 235.066 170.244C235.056 179.759 227.483 187.464 218.13 187.464Z" fill="#383838"/>
<path d="M211.539 176.282C207.457 176.282 204.134 172.901 204.134 168.749C204.134 164.596 207.457 161.215 211.539 161.215C215.621 161.215 218.944 164.596 218.944 168.749C218.944 170.758 218.177 172.654 216.772 174.073C215.377 175.492 213.514 176.282 211.539 176.282ZM211.539 163.11C208.487 163.11 206.006 165.634 206.006 168.739C206.006 171.844 208.487 174.368 211.539 174.368C213.018 174.368 214.404 173.787 215.452 172.72C216.501 171.654 217.072 170.244 217.072 168.739C217.072 165.644 214.591 163.11 211.539 163.11Z" fill="white"/>
<path d="M221.959 180.359C221.715 180.359 221.481 180.264 221.294 180.083L215.415 174.102C215.05 173.73 215.05 173.13 215.415 172.759C215.78 172.387 216.37 172.387 216.735 172.759L222.614 178.74C222.979 179.111 222.979 179.711 222.614 180.083C222.436 180.264 222.202 180.359 221.959 180.359Z" fill="white"/>
<path d="M220.414 223.057H140.745C135.165 223.057 130.653 218.457 130.653 212.79V206.056C130.653 200.361 126.112 195.751 120.523 195.751H83.7219C78.1235 195.751 73.5924 200.37 73.5924 206.056V232.667V263.26V313.053C73.5924 318.358 77.8146 322.654 83.0291 322.654H220.424C225.638 322.654 229.86 318.358 229.86 313.053V232.667C229.851 227.362 225.619 223.057 220.414 223.057Z" fill="#383838"/>
<path d="M211.633 223.057H131.964C126.384 223.057 121.871 218.457 121.871 212.79V206.056C121.871 200.361 117.331 195.751 111.742 195.751H74.9405C69.3422 195.751 64.811 200.37 64.811 206.056V232.667V263.26V313.053C64.811 318.358 69.0332 322.654 74.2478 322.654H211.633C216.847 322.654 221.07 318.358 221.07 313.053V232.667C221.07 227.362 216.847 223.057 211.633 223.057Z" fill="#383838"/>
<path opacity="0.12" d="M211.633 223.057H131.964C126.384 223.057 121.871 218.457 121.871 212.79V206.056C121.871 200.361 117.331 195.751 111.742 195.751H74.9405C69.3422 195.751 64.811 200.37 64.811 206.056V232.667V263.26V313.053C64.811 318.358 69.0332 322.654 74.2478 322.654H211.633C216.847 322.654 221.07 318.358 221.07 313.053V232.667C221.07 227.362 216.847 223.057 211.633 223.057Z" fill="white"/>
<path opacity="0.12" d="M191.43 223.057H122.723C117.911 223.057 114.017 218.457 114.017 212.79V206.056C114.017 200.361 110.104 195.751 105.282 195.751H73.5456C68.7243 195.751 64.811 200.37 64.811 206.056V232.667V263.26V313.053C64.811 318.358 68.4528 322.654 72.9465 322.654H191.43C195.924 322.654 199.565 318.358 199.565 313.053V232.667C199.565 227.362 195.924 223.057 191.43 223.057Z" fill="white"/>
<path d="M72.1696 233.753C71.6547 233.753 71.2334 233.324 71.2334 232.801V209.428C71.2334 205.809 74.1262 202.865 77.6837 202.865H104.796C105.311 202.865 105.732 203.294 105.732 203.818C105.732 204.342 105.311 204.77 104.796 204.77H77.6837C75.156 204.77 73.1058 206.856 73.1058 209.428V232.801C73.1058 233.334 72.6845 233.753 72.1696 233.753Z" fill="white"/>
</svg>
