<svg width="152" height="100" viewBox="0 0 152 100" fill="none" xmlns="http://www.w3.org/2000/svg">
<g id="Pic" clip-path="url(#clip0_4591_2596)">
<g id="BACKGROUND">
<g id="Group" opacity="0.34">
<g id="Group_2" opacity="0.6">
<path id="Vector" d="M132.048 58.6782C133.302 64.0516 132.797 69.683 130.607 74.7508C128.416 79.8186 124.655 84.0575 119.872 86.8491C117.833 88.0074 115.654 88.9022 113.387 89.5119C113.019 90.1 112.616 90.6678 112.191 91.2178H131.574C136.503 85.3802 139.326 77.8993 139.771 70.2842C139.894 68.2241 139.838 66.1573 139.605 64.1067C138.706 56.1674 135.163 48.6015 129.85 42.6007C129.772 43.024 129.707 43.4473 129.656 43.8706C129.077 48.9324 130.942 53.8266 132.048 58.6782Z" fill="#8DC46D" fill-opacity="0.5"/>
</g>
<g id="Group_3" opacity="0.41">
<path id="Vector_2" d="M72.0373 90.0508C70.9 88.4857 70.0144 86.4959 68.8028 84.9084C66.2201 85.4316 63.6689 86.194 61.0908 86.8513C55.8108 88.1928 50.3712 89.1967 44.9249 89.2705C38.8695 89.3532 32.6971 88.1928 27.4329 85.1007C23.4184 82.7397 19.8872 79.1356 17.9766 74.8318C18.5093 80.7678 20.6739 86.5562 24.3197 91.2357H72.9522C72.6345 90.8467 72.3295 90.4517 72.0373 90.0508Z" fill="#8DC46D" fill-opacity="0.5"/>
</g>
<g id="Group_4" opacity="0.41">
<path id="Vector_3" d="M79.7091 8.61673C81.1814 8.56531 82.7616 8.47812 84.4879 8.34844C92.5371 7.74254 100.512 9.56694 108.256 12.0867C109.005 12.3311 109.747 12.5927 110.481 12.8714C107.137 9.20352 102.927 6.42258 98.2306 4.78012C88.9699 1.59189 77.7536 2.85958 69.6055 7.88116C72.9864 7.89364 76.3624 8.13942 79.7091 8.61673Z" fill="#8DC46D" fill-opacity="0.5"/>
</g>
<g id="Group_5" opacity="0.35">
<path id="Vector_4" d="M27.2377 85.1521C32.4863 88.1749 38.6541 89.3308 44.7073 89.2794C50.1559 89.2347 55.5999 88.2934 60.8911 87.0145C63.4738 86.3908 66.0273 85.6731 68.6122 85.1723C67.558 83.804 66.2543 82.733 64.3145 82.5027C56.816 81.6084 48.9241 84.6916 41.4593 85.2147C36.4423 85.5658 31.1196 84.8883 27.0579 81.9058C24.428 79.9696 22.5107 77.1816 21.2025 74.1834C18.4872 67.9634 18.4153 60.8268 20.708 54.4682C22.259 50.1666 26.0285 46.8956 27.3479 42.5135C28.4493 38.8512 27.1726 35.0303 27.5322 31.3345C27.6004 30.5753 27.7511 29.8257 27.9817 29.0987C29.2742 25.166 35.4758 19.4849 39.2767 17.5822C48.0724 13.173 57.7508 10.7831 67.5984 10.5887C62.0869 9.672 56.8722 8.02422 47.6339 6.07238C36.6536 3.73375 24.3269 11.7446 17.8511 21.0633C17.1931 22.0108 16.6107 23.008 16.1091 24.0459C13.8753 28.7076 13.2321 33.9672 14.2772 39.0256C15.4977 44.9058 19.2694 49.4399 17.9208 55.7001C17.1004 59.5144 16.8823 63.0492 16.4553 66.8254C16.1478 69.6778 16.6232 72.5598 17.8309 75.1649C19.719 79.3391 23.2322 82.8448 27.2377 85.1521Z" fill="#8DC46D" fill-opacity="0.5"/>
</g>
<g id="Group_6" opacity="0.47">
<path id="Vector_5" d="M84.4838 8.34844C82.7575 8.47812 81.1774 8.57202 79.7051 8.61674C84.8161 9.34981 89.8514 10.5335 94.7516 12.1537L113.532 18.3022C122.358 21.1908 128.207 29.6041 127.659 38.8289C127.659 38.8915 127.659 38.9519 127.647 39.0122C127.29 44.3634 125.529 49.528 122.541 53.992C119.859 57.9717 116.159 62.4232 115.233 67.3084C114.496 71.2009 116.09 75.1336 116.283 79.0977C116.467 82.8627 115.337 86.4355 113.388 89.5231C115.654 88.9134 117.834 88.0186 119.872 86.8603C124.656 84.0687 128.417 79.8298 130.607 74.762C132.798 69.6942 133.303 64.0628 132.049 58.6894C130.943 53.8377 129.077 48.9458 129.657 43.8907C129.706 43.4659 129.771 43.0426 129.85 42.6208C130.423 39.5466 131.648 36.5417 131.383 33.434C131.185 31.0864 130.147 28.8841 128.877 26.8965C124.658 20.2965 117.863 15.6796 110.472 12.8826C109.735 12.6039 108.993 12.3423 108.247 12.0979C100.513 9.56694 92.5375 7.74254 84.4838 8.34844Z" fill="#8DC46D" fill-opacity="0.5"/>
</g>
<g id="Group_7" opacity="0.7">
<path id="Vector_6" d="M27.9014 27.2185C27.6685 27.9738 27.5178 28.7519 27.4518 29.5392C27.1124 33.3624 28.4094 37.3063 27.3372 41.0848C26.0402 45.6145 22.2865 49.0084 20.7558 53.4577C18.4945 60.0309 18.6046 67.3955 21.3492 73.8033C22.6731 76.8909 24.6062 79.7595 27.245 81.7448C31.3157 84.8011 36.6474 85.4741 41.6621 85.0851C49.1269 84.5083 57.0008 81.2843 64.5038 82.1786C66.4436 82.4022 67.7541 83.5044 68.815 84.9107C70.0221 86.5071 70.9122 88.4991 72.0495 90.053C72.3492 90.4555 72.6542 90.8475 72.9644 91.229H112.192C112.617 90.679 113.019 90.1111 113.388 89.5231C115.337 86.4355 116.467 82.8627 116.283 79.0977C116.09 75.1359 114.485 71.2009 115.233 67.3084C116.16 62.4232 119.859 57.9717 122.541 53.992C125.529 49.528 127.29 44.3634 127.648 39.0123C127.648 38.9519 127.648 38.8915 127.659 38.8289C128.207 29.6041 122.359 21.1908 113.532 18.3022L94.7519 12.1538C89.8532 10.5337 84.8194 9.35007 79.7099 8.61674C76.3647 8.13963 72.9902 7.89385 69.6107 7.88116C68.878 7.88116 68.1474 7.8916 67.4192 7.91247C57.5483 8.17041 47.8702 10.6899 39.1379 15.2749C35.3459 17.2536 29.1736 23.1516 27.9014 27.2185Z" fill="#8DC46D" fill-opacity="0.5"/>
</g>
<g id="Group_8" opacity="0.35">
<path id="Vector_7" d="M62.5798 6.07239C64.2656 6.07239 65.6322 4.71304 65.6322 3.0362C65.6322 1.35935 64.2656 0 62.5798 0C60.894 0 59.5273 1.35935 59.5273 3.0362C59.5273 4.71304 60.894 6.07239 62.5798 6.07239Z" fill="#8DC46D" fill-opacity="0.5"/>
</g>
<g id="Group_9" opacity="0.35">
<path id="Vector_8" d="M145.105 46.0192C148.914 46.0192 152.001 42.9481 152.001 39.1598C152.001 35.3715 148.914 32.3004 145.105 32.3004C141.296 32.3004 138.209 35.3715 138.209 39.1598C138.209 42.9481 141.296 46.0192 145.105 46.0192Z" fill="#8DC46D" fill-opacity="0.5"/>
</g>
<g id="Group_10" opacity="0.35">
<path id="Vector_9" d="M11.3017 57.5763C14.2312 55.1554 14.633 50.8307 12.1991 47.9168C9.76527 45.0029 5.41742 44.6032 2.48792 47.0241C-0.441577 49.445 -0.843385 53.7697 1.59046 56.6836C4.02431 59.5975 8.37216 59.9971 11.3017 57.5763Z" fill="#8DC46D" fill-opacity="0.5"/>
</g>
<g id="Group_11" opacity="0.35">
<path id="Vector_10" d="M116.446 11.5232C117.603 11.5232 118.541 10.5903 118.541 9.43947C118.541 8.28864 117.603 7.35571 116.446 7.35571C115.289 7.35571 114.352 8.28864 114.352 9.43947C114.352 10.5903 115.289 11.5232 116.446 11.5232Z" fill="#8DC46D" fill-opacity="0.5"/>
</g>
</g>
<path id="Vector_11" d="M141.644 89.7534H11.931C11.7857 89.7534 11.668 89.8705 11.668 90.015V90.1111C11.668 90.2556 11.7857 90.3727 11.931 90.3727H141.644C141.79 90.3727 141.907 90.2556 141.907 90.1111V90.015C141.907 89.8705 141.79 89.7534 141.644 89.7534Z" fill="#383838" stroke="#383838" stroke-width="3" stroke-miterlimit="10"/>
</g>
<g id="OBJECTS">
<path id="Vector_12" d="M54.1636 24.3036L47.5916 22.7523C47.28 22.6787 46.9674 22.8704 46.8934 23.1803L45.6541 28.3751C45.5801 28.6851 45.7728 28.996 46.0844 29.0695L52.6564 30.6208C52.968 30.6944 53.2806 30.5028 53.3545 30.1928L54.5939 24.998C54.6679 24.688 54.4752 24.3771 54.1636 24.3036Z" fill="#7EBC59"/>
<path id="Vector_13" d="M52.7878 30.9745C52.7166 30.9752 52.6456 30.9669 52.5765 30.9499L46.004 29.3983C45.7686 29.3411 45.5656 29.1935 45.4392 28.9878C45.3129 28.7821 45.2735 28.535 45.3297 28.3005L46.5705 23.1068C46.6285 22.873 46.777 22.6713 46.9837 22.5457C47.1903 22.4202 47.4384 22.3807 47.6741 22.4361L54.2466 23.9877C54.4817 24.0455 54.6844 24.1931 54.8106 24.3987C54.9369 24.6042 54.9765 24.851 54.9209 25.0855L53.6801 30.2792C53.6313 30.4778 53.5167 30.6543 53.3549 30.7804C53.1931 30.9065 52.9933 30.9749 52.7878 30.9745ZM52.7316 30.3038C52.7626 30.3114 52.7948 30.3128 52.8264 30.3079C52.8579 30.3031 52.8882 30.292 52.9154 30.2753C52.9426 30.2587 52.9662 30.2368 52.9848 30.211C53.0034 30.1851 53.0167 30.1559 53.0238 30.1249L54.2645 24.9312C54.2794 24.8689 54.2688 24.8034 54.2351 24.7489C54.2014 24.6944 54.1473 24.6554 54.0847 24.6406L47.5123 23.0889C47.4813 23.0813 47.4491 23.0799 47.4175 23.0848C47.3859 23.0897 47.3557 23.1008 47.3285 23.1174C47.3013 23.1341 47.2777 23.1559 47.2591 23.1817C47.2405 23.2076 47.2272 23.2368 47.2201 23.2678L45.9793 28.4615C45.972 28.4925 45.9709 28.5246 45.9761 28.556C45.9813 28.5874 45.9927 28.6175 46.0096 28.6445C46.0265 28.6715 46.0486 28.6949 46.0747 28.7134C46.1007 28.7319 46.1302 28.7451 46.1614 28.7522L52.7361 30.2971L52.7316 30.3038Z" fill="#383838"/>
<path id="Vector_14" d="M49.5902 27.916C49.5516 27.9167 49.5132 27.9129 49.4755 27.9048C49.3386 27.8773 49.2181 27.7969 49.1406 27.6812L48.3157 26.3912C48.2904 26.354 48.2729 26.3122 48.2642 26.2683C48.2555 26.2243 48.2557 26.179 48.2649 26.1351C48.274 26.0912 48.2919 26.0496 48.3175 26.0127C48.3432 25.9758 48.3759 25.9444 48.414 25.9204C48.452 25.8963 48.4945 25.88 48.5389 25.8726C48.5834 25.8651 48.6288 25.8666 48.6727 25.877C48.7166 25.8873 48.7579 25.9063 48.7942 25.9328C48.8306 25.9592 48.8612 25.9927 48.8844 26.0312L49.6329 27.2005L52.4223 25.4119C52.4595 25.3853 52.5017 25.3665 52.5464 25.3566C52.5911 25.3467 52.6373 25.346 52.6823 25.3545C52.7273 25.363 52.77 25.3805 52.808 25.406C52.8459 25.4315 52.8783 25.4643 52.903 25.5026C52.9278 25.541 52.9444 25.5839 52.952 25.6288C52.9595 25.6737 52.9578 25.7197 52.9469 25.7639C52.936 25.8081 52.9161 25.8497 52.8885 25.886C52.861 25.9224 52.8262 25.9527 52.7865 25.9753L49.8779 27.8422C49.791 27.8937 49.6912 27.9193 49.5902 27.916Z" fill="white"/>
<path id="Vector_15" d="M108.567 24.6645L101.854 25.4064C101.535 25.4416 101.306 25.7268 101.341 26.0434L101.934 31.3498C101.969 31.6664 102.256 31.8946 102.575 31.8594L109.288 31.1175C109.606 31.0823 109.835 30.7971 109.8 30.4805L109.207 25.1741C109.172 24.8575 108.885 24.6293 108.567 24.6645Z" fill="#5B913B"/>
<path id="Vector_16" d="M102.509 32.1953C102.284 32.1941 102.067 32.1108 101.899 31.9613C101.731 31.8117 101.624 31.6063 101.599 31.3837L101.007 26.0782C100.981 25.8375 101.051 25.5962 101.204 25.4072C101.356 25.2181 101.577 25.0968 101.819 25.0699L108.531 24.3388C108.773 24.3124 109.015 24.3825 109.205 24.5339C109.395 24.6852 109.517 24.9053 109.544 25.1459L110.136 30.4514C110.162 30.6915 110.092 30.9322 109.94 31.1209C109.788 31.3095 109.568 31.4305 109.326 31.4575L102.612 32.1998C102.578 32.2006 102.543 32.1991 102.509 32.1953ZM108.632 24.9938H108.605L101.893 25.7361C101.86 25.7383 101.828 25.7471 101.799 25.762C101.77 25.7768 101.744 25.7974 101.723 25.8225C101.702 25.8475 101.686 25.8766 101.677 25.9079C101.667 25.9391 101.665 25.972 101.668 26.0044L102.262 31.3077C102.265 31.3396 102.274 31.3705 102.29 31.3985C102.305 31.4266 102.326 31.4512 102.352 31.4709C102.376 31.4907 102.405 31.5055 102.435 31.5143C102.466 31.5231 102.498 31.5258 102.529 31.5223L109.243 30.7801C109.276 30.7781 109.308 30.7696 109.337 30.755C109.366 30.7404 109.392 30.7201 109.413 30.6951C109.434 30.6702 109.45 30.6413 109.459 30.6102C109.469 30.579 109.472 30.5463 109.468 30.514L108.877 25.2085C108.869 25.1492 108.84 25.0947 108.795 25.0552C108.75 25.0157 108.692 24.9939 108.632 24.9938Z" fill="#383838"/>
<path id="Vector_17" d="M105.303 29.6241C105.185 29.6243 105.07 29.585 104.977 29.5123L103.761 28.5867C103.691 28.5322 103.645 28.4519 103.634 28.3637C103.622 28.2754 103.647 28.1864 103.702 28.1161C103.757 28.0458 103.837 28.0001 103.926 27.989C104.015 27.9779 104.104 28.0023 104.175 28.0568L105.276 28.9064L107.299 26.2883C107.354 26.2178 107.434 26.1716 107.523 26.1601C107.612 26.1486 107.701 26.1726 107.772 26.2268C107.843 26.2811 107.89 26.3612 107.901 26.4494C107.913 26.5377 107.889 26.6269 107.834 26.6975L105.726 29.4274C105.684 29.4833 105.631 29.5302 105.57 29.5652C105.51 29.6002 105.443 29.6225 105.373 29.6308L105.303 29.6241Z" fill="white"/>
<path id="Vector_18" d="M28.506 37.7914C29.519 37.7914 30.3402 36.9746 30.3402 35.967C30.3402 34.9594 29.519 34.1426 28.506 34.1426C27.4931 34.1426 26.6719 34.9594 26.6719 35.967C26.6719 36.9746 27.4931 37.7914 28.506 37.7914Z" fill="#5B913B"/>
<path id="Vector_19" d="M76.5861 12.574C77.5991 12.574 78.4203 11.7572 78.4203 10.7496C78.4203 9.74205 77.5991 8.92523 76.5861 8.92523C75.5731 8.92523 74.752 9.74205 74.752 10.7496C74.752 11.7572 75.5731 12.574 76.5861 12.574Z" fill="#5B913B"/>
<path id="Vector_20" d="M40.2393 35.5579C40.2393 35.695 40.1984 35.829 40.1219 35.943C40.0453 36.0569 39.9365 36.1458 39.8092 36.1982C39.6818 36.2507 39.5417 36.2644 39.4066 36.2377C39.2714 36.2109 39.1472 36.1449 39.0498 36.048C38.9523 35.9511 38.886 35.8276 38.8591 35.6931C38.8322 35.5587 38.846 35.4193 38.8987 35.2927C38.9515 35.166 39.0408 35.0578 39.1554 34.9816C39.27 34.9055 39.4047 34.8648 39.5425 34.8648C39.7273 34.8648 39.9045 34.9378 40.0352 35.0678C40.1659 35.1978 40.2393 35.3741 40.2393 35.5579Z" fill="#383838"/>
<path id="Vector_21" d="M120.482 29.4811C120.483 29.6188 120.442 29.7535 120.365 29.8682C120.289 29.9829 120.179 30.0724 120.052 30.1253C119.924 30.1782 119.783 30.1921 119.647 30.1654C119.511 30.1386 119.387 30.0723 119.289 29.975C119.191 29.8776 119.124 29.7535 119.097 29.6184C119.07 29.4833 119.084 29.3433 119.138 29.2162C119.191 29.089 119.281 28.9805 119.396 28.9042C119.511 28.828 119.647 28.7875 119.785 28.788C119.97 28.788 120.147 28.861 120.278 28.991C120.409 29.121 120.482 29.2972 120.482 29.4811Z" fill="#383838"/>
<path id="Vector_22" d="M53.5484 16.4129C53.9332 16.4129 54.2452 16.1026 54.2452 15.7198C54.2452 15.337 53.9332 15.0267 53.5484 15.0267C53.1635 15.0267 52.8516 15.337 52.8516 15.7198C52.8516 16.1026 53.1635 16.4129 53.5484 16.4129Z" fill="#383838"/>
<path id="Vector_23" d="M30.6031 49.1783C30.9879 49.1783 31.2999 48.868 31.2999 48.4852C31.2999 48.1025 30.9879 47.7921 30.6031 47.7921C30.2182 47.7921 29.9062 48.1025 29.9062 48.4852C29.9062 48.868 30.2182 49.1783 30.6031 49.1783Z" fill="#7EBC59"/>
<path id="Vector_24" d="M124.242 55.1479C124.627 55.1479 124.939 54.8376 124.939 54.4548C124.939 54.072 124.627 53.7617 124.242 53.7617C123.857 53.7617 123.545 54.072 123.545 54.4548C123.545 54.8376 123.857 55.1479 124.242 55.1479Z" fill="#7EBC59"/>
<path id="Vector_25" d="M135.85 63.0626C135.85 63.3151 135.775 63.5619 135.634 63.7718C135.493 63.9818 135.292 64.1454 135.058 64.242C134.823 64.3386 134.565 64.3639 134.316 64.3147C134.067 64.2654 133.839 64.1438 133.659 63.9653C133.48 63.7867 133.357 63.5593 133.308 63.3116C133.258 63.064 133.284 62.8073 133.381 62.574C133.478 62.3407 133.643 62.1413 133.854 62.0011C134.065 61.8608 134.313 61.7859 134.567 61.7859C134.907 61.7859 135.234 61.9204 135.474 62.1598C135.715 62.3993 135.85 62.724 135.85 63.0626Z" fill="#7EBC59"/>
<path id="Vector_26" d="M95.2323 21.8637C95.2323 22.1628 95.1432 22.4551 94.9761 22.7037C94.809 22.9523 94.5716 23.146 94.2938 23.2603C94.016 23.3746 93.7104 23.4044 93.4156 23.3459C93.1208 23.2874 92.85 23.1433 92.6376 22.9317C92.4252 22.7201 92.2807 22.4506 92.2223 22.1572C92.1639 21.8639 92.1943 21.5599 92.3097 21.2838C92.425 21.0077 92.6201 20.7718 92.8703 20.606C93.1205 20.4402 93.4145 20.3519 93.7151 20.3524C93.9145 20.3524 94.112 20.3915 94.2962 20.4674C94.4805 20.5434 94.6478 20.6548 94.7887 20.7952C94.9297 20.9355 95.0414 21.1022 95.1175 21.2855C95.1936 21.4689 95.2326 21.6654 95.2323 21.8637Z" fill="#7EBC59"/>
<path id="Vector_27" d="M56.6129 63.244L32.5417 63.2942C30.6871 63.298 29.1867 64.7967 29.1906 66.6414L29.2235 82.2338C29.2273 84.0785 30.734 85.5709 32.5886 85.567L56.6598 85.5169C58.5144 85.513 60.0148 84.0144 60.0109 82.1696L59.9781 66.5773C59.9742 64.7325 58.4675 63.2402 56.6129 63.244Z" fill="#383838"/>
<path id="Vector_28" d="M32.5825 85.9011C31.604 85.8999 30.6658 85.5132 29.9733 84.8256C29.2807 84.138 28.8902 83.2055 28.8872 82.2322L28.8535 66.6421C28.8523 65.6672 29.2401 64.7317 29.9316 64.0409C30.6231 63.3501 31.562 62.9604 32.5421 62.9575L56.6133 62.9083C57.5916 62.9089 58.5298 63.2951 59.2225 63.9823C59.9151 64.6696 60.3056 65.6019 60.3086 66.575L60.3423 82.1674C60.3423 83.1416 59.9542 84.0762 59.2628 84.7664C58.5714 85.4566 57.6333 85.8461 56.6538 85.8497L32.5825 85.9011ZM56.62 63.579L32.5511 63.6282C31.7498 63.6306 30.9823 63.949 30.4168 64.5136C29.8512 65.0782 29.534 65.8428 29.5346 66.6398L29.5683 82.23C29.5701 83.0259 29.8891 83.7888 30.4554 84.3512C31.0217 84.9136 31.789 85.2298 32.5893 85.2304L56.6605 85.179C57.4608 85.1742 58.2268 84.855 58.7914 84.2909C59.3561 83.7267 59.6736 82.9634 59.6747 82.1674L59.641 66.5772C59.6387 65.7816 59.3194 65.0194 58.7532 64.4574C58.187 63.8955 57.4199 63.5796 56.62 63.579Z" fill="#383838"/>
<path id="Vector_29" opacity="0.24" d="M56.6129 63.244L32.5417 63.2942C30.6871 63.298 29.1867 64.7967 29.1906 66.6414L29.2235 82.2338C29.2273 84.0785 30.734 85.5709 32.5886 85.567L56.6598 85.5169C58.5144 85.513 60.0148 84.0144 60.0109 82.1696L59.9781 66.5773C59.9742 64.7325 58.4675 63.2402 56.6129 63.244Z" fill="#383838"/>
<path id="Vector_30" d="M69.4668 67.3517L58.8679 57.2453C58.7531 57.136 58.571 57.1398 58.4611 57.2539L44.7043 71.5279C44.5944 71.642 44.5982 71.8231 44.7129 71.9325L55.3118 82.0388C55.4265 82.1482 55.6087 82.1444 55.7186 82.0303L69.4753 67.7563C69.5853 67.6422 69.5815 67.461 69.4668 67.3517Z" fill="white"/>
<path id="Vector_31" d="M55.5063 82.4513C55.3454 82.452 55.1906 82.3902 55.0747 82.2791L44.4743 72.1711C44.3553 72.0567 44.2867 71.9001 44.2833 71.7355C44.28 71.5709 44.3421 71.4117 44.4563 71.2925L58.2148 57.0192C58.3296 56.9006 58.4869 56.8319 58.6524 56.8281C58.8178 56.8244 58.9781 56.8858 59.0982 56.9991L69.6964 67.1071C69.8162 67.2209 69.8856 67.3775 69.8894 67.5423C69.8932 67.707 69.831 67.8666 69.7166 67.9858L55.9581 82.259C55.8433 82.3783 55.6857 82.4474 55.5198 82.4513H55.5063ZM44.9778 71.7217L55.5063 81.7604L69.1951 67.5587L58.6666 57.5178L44.9778 71.7217Z" fill="#383838"/>
<path id="Vector_32" d="M66.334 67.675C66.2761 67.6748 66.2206 67.6523 66.1789 67.6124L62.1891 63.8116C62.1653 63.792 62.1458 63.7677 62.1318 63.7403C62.1178 63.7129 62.1096 63.6829 62.1078 63.6522C62.106 63.6214 62.1106 63.5907 62.1213 63.5618C62.132 63.533 62.1485 63.5066 62.1699 63.4844C62.1913 63.4622 62.2171 63.4446 62.2456 63.4328C62.2742 63.4209 62.3048 63.4151 62.3358 63.4156C62.3667 63.416 62.3972 63.4229 62.4253 63.4356C62.4534 63.4484 62.4786 63.4667 62.4993 63.4896L66.4891 67.2904C66.531 67.3323 66.5545 67.389 66.5545 67.4481C66.5545 67.5071 66.531 67.5638 66.4891 67.6057C66.4485 67.6481 66.3928 67.673 66.334 67.675Z" fill="#7EBC59"/>
<path id="Vector_33" d="M64.3278 70.2953C64.27 70.2951 64.2144 70.2727 64.1727 70.2327L56.191 62.631C56.1477 62.5901 56.1226 62.5338 56.1212 62.4745C56.1197 62.4152 56.142 62.3577 56.1831 62.3147C56.2242 62.2717 56.2809 62.2467 56.3405 62.2452C56.4001 62.2438 56.4579 62.2659 56.5012 62.3069L64.4829 69.9197C64.5248 69.9616 64.5483 70.0183 64.5483 70.0773C64.5483 70.1364 64.5248 70.1931 64.4829 70.235C64.4409 70.2741 64.3854 70.2957 64.3278 70.2953Z" fill="#383838"/>
<path id="Vector_34" d="M61.7284 72.9939C61.6697 72.9943 61.6132 72.9718 61.571 72.9313L53.5915 65.3297C53.5676 65.3101 53.5481 65.2858 53.5341 65.2584C53.5201 65.231 53.512 65.201 53.5101 65.1702C53.5083 65.1395 53.5129 65.1088 53.5236 65.0799C53.5343 65.0511 53.5509 65.0247 53.5723 65.0025C53.5937 64.9803 53.6194 64.9627 53.648 64.9509C53.6765 64.939 53.7072 64.9332 53.7381 64.9337C53.769 64.9341 53.7995 64.941 53.8276 64.9537C53.8558 64.9664 53.881 64.9848 53.9017 65.0077L61.8835 72.6094C61.9253 72.6513 61.9488 72.7079 61.9488 72.767C61.9488 72.8261 61.9253 72.8827 61.8835 72.9246C61.8429 72.967 61.7872 72.9919 61.7284 72.9939Z" fill="#383838"/>
<path id="Vector_35" d="M59.2784 75.5382C59.2205 75.538 59.165 75.5156 59.1233 75.4756L51.1415 67.874C51.0997 67.8321 51.0762 67.7754 51.0762 67.7163C51.0762 67.6573 51.0997 67.6006 51.1415 67.5587C51.1624 67.5378 51.1873 67.5211 51.2147 67.5098C51.2421 67.4984 51.2714 67.4926 51.3011 67.4926C51.3308 67.4926 51.3602 67.4984 51.3876 67.5098C51.415 67.5211 51.4398 67.5378 51.4607 67.5587L59.4402 75.1604C59.4821 75.2023 59.5056 75.259 59.5056 75.318C59.5056 75.3771 59.4821 75.4337 59.4402 75.4756C59.4188 75.4962 59.3934 75.5124 59.3657 75.5231C59.3379 75.5339 59.3082 75.539 59.2784 75.5382Z" fill="#383838"/>
<path id="Vector_36" d="M56.6769 78.2324C56.6194 78.2327 56.5639 78.2111 56.5218 78.172L48.5401 70.5703C48.5021 70.5284 48.4816 70.4737 48.4825 70.4173C48.4833 70.3609 48.5057 70.3069 48.5449 70.2661C48.5842 70.2254 48.6374 70.2009 48.6941 70.1976C48.7507 70.1943 48.8065 70.2125 48.8503 70.2484L56.832 77.85C56.8642 77.8809 56.8865 77.9207 56.8958 77.9642C56.9052 78.0077 56.9013 78.053 56.8847 78.0943C56.868 78.1356 56.8393 78.171 56.8023 78.196C56.7653 78.221 56.7217 78.2344 56.6769 78.2346V78.2324Z" fill="#383838"/>
<path id="Vector_37" d="M41.4658 50.3171L27.8738 55.8399C27.7267 55.8996 27.6561 56.0667 27.7162 56.213L35.2338 74.5179C35.2939 74.6642 35.4619 74.7344 35.609 74.6746L49.201 69.1519C49.3481 69.0921 49.4186 68.925 49.3585 68.7787L41.8409 50.4738C41.7808 50.3275 41.6129 50.2573 41.4658 50.3171Z" fill="white"/>
<path id="Vector_38" d="M35.5038 75.0307C35.4204 75.031 35.3378 75.0143 35.2611 74.9815C35.1856 74.95 35.1172 74.904 35.0597 74.846C35.0022 74.7881 34.9568 74.7194 34.9262 74.6439L27.4074 56.3396C27.3757 56.2641 27.3594 56.1832 27.3594 56.1014C27.3594 56.0197 27.3757 55.9387 27.4074 55.8633C27.4383 55.7875 27.4843 55.7187 27.5426 55.6611C27.601 55.6035 27.6704 55.5582 27.7468 55.528L41.339 50.0056C41.4922 49.9435 41.6639 49.9445 41.8165 50.0082C41.969 50.0719 42.0899 50.1932 42.1527 50.3454L49.6714 68.652C49.7338 68.8044 49.7329 68.9752 49.6688 69.1269C49.6048 69.2787 49.4828 69.3989 49.3298 69.4614L35.7376 74.9838C35.6635 75.0143 35.5841 75.0302 35.5038 75.0307ZM28.0503 56.1316L35.5308 74.3443L49.0308 68.8577L41.5503 50.645L28.0503 56.1316Z" fill="#383838"/>
<path id="Vector_39" d="M39.5424 57.2607C39.4909 57.2601 39.4411 57.2418 39.4014 57.209C39.3617 57.1762 39.3346 57.1309 39.3246 57.0805C39.3146 57.0302 39.3223 56.978 39.3464 56.9326C39.3705 56.8872 39.4096 56.8515 39.457 56.8314L41.7947 55.8812C41.8221 55.8699 41.8515 55.8641 41.8812 55.8642C41.9109 55.8643 41.9403 55.8702 41.9677 55.8816C41.9951 55.8931 42.0199 55.9098 42.0408 55.9308C42.0616 55.9518 42.0781 55.9768 42.0892 56.0042C42.1114 56.059 42.1109 56.1204 42.0877 56.1749C42.0645 56.2294 42.0206 56.2725 41.9655 56.2948L39.6279 57.245C39.6007 57.2557 39.5717 57.261 39.5424 57.2607Z" fill="#383838"/>
<path id="Vector_40" d="M33.0659 63.9323C33.0143 63.9317 32.9645 63.9134 32.9248 63.8806C32.8852 63.8478 32.858 63.8025 32.848 63.7521C32.838 63.7018 32.8457 63.6496 32.8698 63.6042C32.8939 63.5588 32.933 63.5231 32.9805 63.503L43.2167 59.3422C43.2719 59.3201 43.3336 59.3206 43.3884 59.3437C43.4432 59.3667 43.4865 59.4104 43.509 59.4652C43.5312 59.52 43.5307 59.5814 43.5075 59.6359C43.4843 59.6904 43.4404 59.7335 43.3853 59.7558L33.1513 63.9122C33.1244 63.9244 33.0954 63.9312 33.0659 63.9323Z" fill="#383838"/>
<path id="Vector_41" d="M40.2003 63.7825C40.1477 63.7831 40.0966 63.7654 40.0558 63.7325C40.015 63.6995 39.987 63.6534 39.9769 63.6021C39.9667 63.5508 39.975 63.4976 40.0002 63.4517C40.0254 63.4058 40.066 63.3702 40.1149 63.351L44.1945 61.6987C44.2218 61.6876 44.2511 61.6819 44.2806 61.6819C44.3101 61.682 44.3393 61.6879 44.3666 61.6992C44.3938 61.7105 44.4185 61.7271 44.4394 61.7479C44.4602 61.7687 44.4767 61.7934 44.4879 61.8206C44.4991 61.8477 44.5048 61.8768 44.5047 61.9062C44.5046 61.9355 44.4987 61.9646 44.4874 61.9917C44.476 62.0188 44.4594 62.0434 44.4384 62.0641C44.4175 62.0848 44.3927 62.1012 44.3654 62.1123L40.2969 63.7646C40.2664 63.7776 40.2334 63.7837 40.2003 63.7825Z" fill="#7EBC59"/>
<path id="Vector_42" d="M34.0336 66.2888C33.989 66.2884 33.9455 66.2748 33.9087 66.2497C33.8719 66.2246 33.8434 66.1892 33.8269 66.1479C33.8046 66.0931 33.8051 66.0317 33.8283 65.9772C33.8515 65.9227 33.8954 65.8796 33.9505 65.8573L36.441 64.8445C36.4953 64.8264 36.5544 64.8295 36.6064 64.8533C36.6584 64.8771 36.6993 64.9197 36.7208 64.9724C36.7423 65.0252 36.7428 65.0841 36.7221 65.1372C36.7015 65.1903 36.6612 65.2335 36.6096 65.2581L34.1191 66.2709C34.092 66.2824 34.063 66.2884 34.0336 66.2888Z" fill="#7EBC59"/>
<path id="Vector_43" d="M34.8382 69.0343C34.7877 69.0322 34.7394 69.0132 34.7011 68.9804C34.6628 68.9475 34.6368 68.9028 34.6271 68.8535C34.6175 68.8041 34.6249 68.753 34.6481 68.7083C34.6714 68.6636 34.709 68.628 34.7551 68.6073L41.0488 66.0451C41.1042 66.0228 41.1663 66.0234 41.2213 66.0467C41.2763 66.07 41.3198 66.114 41.3421 66.1692C41.3645 66.2243 41.3639 66.286 41.3405 66.3407C41.3171 66.3955 41.2728 66.4387 41.2174 66.4609L34.9237 69.0209C34.8962 69.0304 34.8673 69.035 34.8382 69.0343Z" fill="#383838"/>
<path id="Vector_44" d="M35.5131 52.3303L30.0765 54.6737C29.8487 54.7719 29.7441 55.0352 29.8428 55.2618L32.3704 61.0633C32.4691 61.2899 32.7338 61.394 32.9616 61.2958L38.3982 58.9523C38.626 58.8541 38.7306 58.5908 38.6319 58.3642L36.1043 52.5628C36.0056 52.3362 35.7409 52.2321 35.5131 52.3303Z" fill="#7EBC59"/>
<path id="Vector_45" d="M32.7819 61.5623C32.6963 61.5627 32.6114 61.546 32.5324 61.5132C32.45 61.4807 32.3748 61.4324 32.3111 61.371C32.2475 61.3096 32.1967 61.2364 32.1615 61.1554L29.635 55.3558C29.567 55.1919 29.567 55.0078 29.635 54.8438C29.6674 54.7614 29.7159 54.6862 29.7776 54.6225C29.8393 54.5588 29.9131 54.5079 29.9947 54.4727L35.4297 52.1318C35.5116 52.0949 35.6001 52.0746 35.69 52.0722C35.7799 52.0698 35.8694 52.0853 35.9532 52.1178C36.0369 52.1503 36.1133 52.1991 36.1778 52.2614C36.2424 52.3237 36.2937 52.3982 36.3288 52.4806L38.8553 58.2802C38.8906 58.3612 38.9095 58.4484 38.9109 58.5367C38.9122 58.6249 38.896 58.7126 38.8632 58.7947C38.8305 58.8767 38.7817 58.9515 38.7198 59.0148C38.6579 59.0781 38.584 59.1285 38.5024 59.1633L33.0674 61.5064C32.9772 61.5448 32.8799 61.5639 32.7819 61.5623ZM35.6905 52.5231C35.6597 52.5236 35.6292 52.5297 35.6006 52.5409L30.1655 54.884C30.1381 54.8955 30.1133 54.9123 30.0924 54.9334C30.0716 54.9545 30.0552 54.9796 30.0441 55.007C30.0327 55.0343 30.0268 55.0635 30.0268 55.0931C30.0268 55.1226 30.0327 55.1519 30.0441 55.1792L32.5706 60.9788C32.5816 61.0061 32.5983 61.0308 32.6196 61.0513C32.6409 61.0717 32.6664 61.0874 32.6942 61.0973C32.7216 61.1087 32.7511 61.1145 32.7808 61.1145C32.8105 61.1145 32.8399 61.1087 32.8673 61.0973L38.3024 58.7542C38.3296 58.7425 38.3542 58.7256 38.3749 58.7044C38.3955 58.6833 38.4117 58.6582 38.4225 58.6308C38.4334 58.6034 38.4387 58.5741 38.4382 58.5446C38.4376 58.5151 38.4312 58.4861 38.4193 58.4591L35.8928 52.6594C35.8759 52.6197 35.8478 52.5857 35.8119 52.5615C35.776 52.5373 35.7338 52.524 35.6905 52.5231Z" fill="#383838"/>
<path id="Vector_46" d="M32.5984 55.8857C32.5313 55.8865 32.4647 55.8735 32.4028 55.8477C32.3377 55.8225 32.2783 55.7846 32.2281 55.7362C32.1779 55.6878 32.138 55.6299 32.1106 55.566L31.8139 54.8952C31.8056 54.8816 31.8003 54.8662 31.7984 54.8503C31.7965 54.8344 31.798 54.8183 31.8029 54.8031C31.8078 54.7878 31.816 54.7738 31.8268 54.762C31.8376 54.7501 31.8509 54.7407 31.8657 54.7344C31.8805 54.7281 31.8965 54.725 31.9126 54.7254C31.9287 54.7258 31.9445 54.7296 31.959 54.7366C31.9734 54.7435 31.9863 54.7535 31.9965 54.7659C32.0068 54.7782 32.0143 54.7926 32.0185 54.808L32.3152 55.4788C32.3482 55.5527 32.4091 55.6108 32.4848 55.6405C32.5605 55.6702 32.6449 55.6691 32.7198 55.6375L32.7692 55.6152C32.8269 55.5901 32.8723 55.5434 32.8955 55.4851C32.9186 55.4269 32.9177 55.3619 32.8928 55.3044L32.1421 53.5851C32.1296 53.5555 32.1113 53.5288 32.0884 53.5063C32.0654 53.4839 32.0381 53.4662 32.0082 53.4544C31.9783 53.4425 31.9463 53.4367 31.9141 53.4373C31.8819 53.4378 31.8501 53.4447 31.8207 53.4576L31.7353 53.4934C31.7038 53.507 31.6753 53.5266 31.6515 53.5512C31.6277 53.5758 31.6089 53.6048 31.5964 53.6366C31.5839 53.6684 31.5778 53.7023 31.5785 53.7364C31.5791 53.7705 31.5866 53.8042 31.6004 53.8355L31.6184 53.8779C31.6297 53.905 31.6299 53.9353 31.619 53.9625C31.6081 53.9897 31.5869 54.0115 31.5599 54.0233C31.5328 54.0354 31.5019 54.0363 31.4741 54.0258C31.4463 54.0153 31.4238 53.9943 31.4116 53.9674L31.3936 53.9249C31.3424 53.8075 31.3402 53.6747 31.3874 53.5556C31.4346 53.4365 31.5274 53.341 31.6453 53.2899L31.7308 53.2519C31.8453 53.2032 31.9745 53.2015 32.0903 53.2471C32.2061 53.2928 32.299 53.3821 32.3489 53.4956L33.0996 55.2172C33.1478 55.329 33.1496 55.4552 33.1045 55.5683C33.0595 55.6814 32.9712 55.7722 32.8591 55.8208L32.8074 55.8432C32.7414 55.8714 32.6703 55.8858 32.5984 55.8857Z" fill="#383838"/>
<path id="Vector_47" d="M35.7863 53.3458C35.8529 53.4121 35.8983 53.4966 35.9166 53.5885C35.9349 53.6804 35.9255 53.7757 35.8894 53.8623C35.8533 53.9489 35.7922 54.0229 35.7139 54.0749C35.6355 54.127 35.5434 54.1548 35.4492 54.1548C35.355 54.1548 35.2628 54.127 35.1845 54.0749C35.1061 54.0229 35.0451 53.9489 35.009 53.8623C34.9729 53.7757 34.9634 53.6804 34.9818 53.5885C35.0001 53.4966 35.0454 53.4121 35.112 53.3458C35.1563 53.3017 35.2088 53.2668 35.2667 53.2429C35.3245 53.2191 35.3866 53.2068 35.4492 53.2068C35.5118 53.2068 35.5738 53.2191 35.6317 53.2429C35.6895 53.2668 35.7421 53.3017 35.7863 53.3458Z" fill="white"/>
<path id="Vector_48" d="M54.0554 35.749L40.5402 41.4553C40.394 41.517 40.3257 41.685 40.3878 41.8305L48.1552 60.032C48.2173 60.1774 48.3862 60.2453 48.5325 60.1836L62.0476 54.4773C62.1939 54.4155 62.2622 54.2475 62.2001 54.102L54.4327 35.9006C54.3706 35.7551 54.2017 35.6872 54.0554 35.749Z" fill="white"/>
<path id="Vector_49" d="M48.4243 60.5383C48.3017 60.5371 48.1821 60.5006 48.0799 60.4331C47.9778 60.3656 47.8975 60.2702 47.8488 60.1583L40.0806 41.9567C40.0162 41.8052 40.0148 41.6344 40.0767 41.4819C40.1387 41.3293 40.2589 41.2074 40.411 41.1429L53.9268 35.4349C54.0802 35.3724 54.2521 35.3724 54.4055 35.4349C54.4817 35.4654 54.5511 35.5105 54.6097 35.5677C54.6683 35.6248 54.715 35.6929 54.7472 35.7681L62.5154 53.9718C62.5799 54.1234 62.5813 54.2941 62.5193 54.4467C62.4574 54.5992 62.3372 54.7211 62.185 54.7857L48.6693 60.4892C48.5914 60.5206 48.5083 60.5373 48.4243 60.5383ZM40.7212 41.7398L48.4512 59.8497L61.8748 54.1798L54.1448 36.0699L40.7212 41.7398Z" fill="#383838"/>
<path id="Vector_50" d="M52.2234 42.7147C52.1796 42.7148 52.1366 42.7022 52.0999 42.6784C52.0631 42.6545 52.0342 42.6205 52.0166 42.5805C52.0048 42.5534 51.9985 42.5242 51.9981 42.4946C51.9977 42.465 52.0032 42.4357 52.0142 42.4082C52.0253 42.3808 52.0418 42.3558 52.0626 42.3347C52.0835 42.3136 52.1083 42.2969 52.1358 42.2854L54.4599 41.3039C54.4871 41.2923 54.5163 41.2861 54.5458 41.2858C54.5754 41.2854 54.6047 41.2908 54.6322 41.3017C54.6596 41.3126 54.6846 41.3288 54.7058 41.3493C54.727 41.3698 54.7439 41.3943 54.7555 41.4213C54.7672 41.4483 54.7734 41.4773 54.7738 41.5067C54.7741 41.5361 54.7687 41.5653 54.7577 41.5926C54.7468 41.6199 54.7305 41.6448 54.7099 41.6658C54.6893 41.6869 54.6647 41.7037 54.6375 41.7153L52.3133 42.6968C52.2851 42.7094 52.2544 42.7155 52.2234 42.7147Z" fill="#383838"/>
<path id="Vector_51" d="M45.8415 49.4734C45.7898 49.4733 45.7396 49.4555 45.6995 49.4228C45.6595 49.3902 45.632 49.3448 45.6217 49.2944C45.6114 49.2439 45.6189 49.1914 45.643 49.1459C45.6671 49.1003 45.7062 49.0644 45.7539 49.0442L55.9317 44.747C55.986 44.7265 56.0462 44.7278 56.0997 44.7505C56.1531 44.7732 56.1956 44.8156 56.2183 44.8688C56.241 44.922 56.2421 44.9819 56.2213 45.0359C56.2006 45.0899 56.1596 45.1338 56.107 45.1584L45.9292 49.4556C45.9017 49.4681 45.8717 49.4742 45.8415 49.4734Z" fill="#383838"/>
<path id="Vector_52" d="M52.9726 49.2253C52.9285 49.2252 52.8853 49.2123 52.8486 49.188C52.8118 49.1638 52.783 49.1293 52.7658 49.0889C52.7426 49.0343 52.7421 48.9729 52.7645 48.9179C52.7868 48.863 52.8301 48.8192 52.8849 48.796L56.9309 47.0879C56.9852 47.0674 57.0454 47.0686 57.0989 47.0913C57.1523 47.1141 57.1948 47.1565 57.2175 47.2097C57.2402 47.2629 57.2412 47.3228 57.2205 47.3768C57.1998 47.4308 57.1588 47.4747 57.1062 47.4993L53.0603 49.2074C53.0327 49.2197 53.0028 49.2258 52.9726 49.2253Z" fill="#7EBC59"/>
<path id="Vector_53" d="M46.8406 51.8143C46.7967 51.8145 46.7538 51.8019 46.717 51.778C46.6803 51.7542 46.6514 51.7202 46.6338 51.6802C46.622 51.653 46.6157 51.6238 46.6153 51.5943C46.6148 51.5647 46.6203 51.5353 46.6314 51.5079C46.6425 51.4804 46.6589 51.4554 46.6798 51.4344C46.7007 51.4133 46.7255 51.3965 46.7529 51.3851L49.2255 50.3409C49.2526 50.3293 49.2818 50.3232 49.3114 50.3228C49.3409 50.3224 49.3703 50.3278 49.3977 50.3387C49.4251 50.3496 49.4502 50.3658 49.4713 50.3863C49.4925 50.4068 49.5094 50.4313 49.5211 50.4583C49.5327 50.4853 49.5389 50.5144 49.5393 50.5438C49.5397 50.5732 49.5342 50.6023 49.5233 50.6296C49.5123 50.6569 49.4961 50.6818 49.4754 50.7029C49.4548 50.7239 49.4302 50.7407 49.403 50.7523L46.9305 51.7987C46.9018 51.8096 46.8713 51.8149 46.8406 51.8143Z" fill="#7EBC59"/>
<path id="Vector_54" d="M47.6814 54.5509C47.6296 54.5508 47.5795 54.5329 47.5394 54.5003C47.4993 54.4677 47.4718 54.4223 47.4615 54.3718C47.4512 54.3214 47.4587 54.2689 47.4828 54.2233C47.5069 54.1777 47.5461 54.1418 47.5937 54.1216L53.8605 51.4745C53.9148 51.454 53.975 51.4552 54.0284 51.4779C54.0819 51.5007 54.1244 51.5431 54.1471 51.5963C54.1697 51.6495 54.1708 51.7094 54.1501 51.7634C54.1293 51.8174 54.0884 51.8612 54.0358 51.8858L47.769 54.533C47.7412 54.5443 47.7115 54.5504 47.6814 54.5509Z" fill="#383838"/>
<path id="Vector_55" d="M58.2049 53.7722L43.6888 51.5808C43.5317 51.5571 43.385 51.6646 43.3611 51.8208L40.3782 71.3703C40.3544 71.5265 40.4624 71.6724 40.6195 71.6961L55.1356 73.8875C55.2927 73.9113 55.4394 73.8038 55.4632 73.6475L58.4461 54.0981C58.47 53.9419 58.362 53.796 58.2049 53.7722Z" fill="#5B913B"/>
<path id="Vector_56" d="M55.1866 74.2236C55.1552 74.2258 55.1236 74.2258 55.0922 74.2236L40.5739 72.0325C40.4927 72.0203 40.4148 71.9922 40.3445 71.9499C40.2742 71.9076 40.213 71.852 40.1643 71.7861C40.1157 71.7203 40.0806 71.6456 40.061 71.5663C40.0414 71.4869 40.0377 71.4045 40.0502 71.3238L43.033 51.7741C43.0579 51.6114 43.1467 51.4652 43.2799 51.3676C43.413 51.2699 43.5797 51.2288 43.7433 51.2531L58.2615 53.4442C58.4251 53.469 58.572 53.5573 58.6702 53.6898C58.7684 53.8222 58.8097 53.988 58.7852 54.1507L55.8025 73.7027C55.78 73.8492 55.7055 73.983 55.5926 74.0797C55.4796 74.1765 55.3356 74.2299 55.1866 74.2303V74.2236ZM40.7245 71.3707L55.1439 73.5462L58.1109 54.0948L43.6916 51.9194L40.7245 71.3707Z" fill="#383838"/>
<path id="Vector_57" d="M48.3546 55.0629H48.3209L45.5449 54.6404C45.5157 54.636 45.4876 54.6259 45.4623 54.6107C45.4369 54.5956 45.4149 54.5756 45.3973 54.5519C45.3798 54.5282 45.3671 54.5013 45.36 54.4728C45.353 54.4442 45.3516 54.4145 45.3561 54.3855C45.3605 54.3564 45.3706 54.3285 45.3859 54.3033C45.4011 54.2781 45.4212 54.2561 45.445 54.2387C45.4688 54.2212 45.4959 54.2086 45.5246 54.2016C45.5533 54.1946 45.5831 54.1932 45.6123 54.1977L48.3996 54.618C48.4592 54.6224 48.5146 54.6503 48.5536 54.6953C48.5926 54.7404 48.6119 54.799 48.6075 54.8583C48.603 54.9176 48.575 54.9727 48.5297 55.0115C48.4844 55.0503 48.4255 55.0696 48.3658 55.0651L48.3546 55.0629Z" fill="white"/>
<path id="Vector_58" d="M55.5902 59.1589H55.5565L52.3557 58.6759C52.2961 58.6671 52.2425 58.635 52.2066 58.5867C52.1708 58.5385 52.1557 58.4781 52.1646 58.4188C52.1736 58.3595 52.2058 58.3062 52.2543 58.2706C52.3028 58.2349 52.3635 58.2199 52.4231 58.2288L55.6239 58.7117C55.6835 58.7162 55.7389 58.744 55.7779 58.7891C55.8169 58.8341 55.8363 58.8928 55.8318 58.9521C55.8274 59.0114 55.7994 59.0665 55.7541 59.1053C55.7088 59.144 55.6498 59.1633 55.5902 59.1589Z" fill="#383838"/>
<path id="Vector_59" d="M50.1235 58.3339H50.0898L44.6233 57.5089C44.5636 57.5 44.51 57.4679 44.4742 57.4197C44.4384 57.3714 44.4233 57.311 44.4322 57.2517C44.4411 57.1925 44.4734 57.1391 44.5219 57.1035C44.5704 57.0678 44.6311 57.0528 44.6907 57.0617L50.1572 57.8867C50.1868 57.8889 50.2155 57.8969 50.242 57.9101C50.2684 57.9234 50.2919 57.9417 50.3112 57.9641C50.3305 57.9864 50.3452 58.0123 50.3545 58.0402C50.3637 58.0682 50.3674 58.0977 50.3652 58.1271C50.3629 58.1564 50.3549 58.1851 50.3416 58.2113C50.3283 58.2376 50.3098 58.261 50.2874 58.2802C50.265 58.2995 50.2389 58.3141 50.2108 58.3233C50.1827 58.3325 50.153 58.3361 50.1235 58.3339Z" fill="white"/>
<path id="Vector_60" d="M50.3201 62.1459H50.2864L44.0579 61.2046C43.9982 61.1954 43.9447 61.1631 43.9091 61.1146C43.8735 61.0662 43.8587 61.0057 43.8679 60.9464C43.8772 60.8871 43.9097 60.8339 43.9584 60.7984C44.0071 60.763 44.0679 60.7483 44.1275 60.7575L50.3538 61.6965C50.4134 61.7009 50.4688 61.7288 50.5078 61.7738C50.5468 61.8189 50.5662 61.8775 50.5617 61.9368C50.5573 61.9961 50.5293 62.0512 50.484 62.09C50.4387 62.1288 50.3797 62.1481 50.3201 62.1436V62.1459Z" fill="#383838"/>
<path id="Vector_61" d="M54.4952 66.3357H54.4615L43.5217 64.6835C43.4621 64.6746 43.4085 64.6425 43.3726 64.5943C43.3368 64.5461 43.3217 64.4857 43.3306 64.4264C43.3396 64.3671 43.3718 64.3137 43.4203 64.2781C43.4688 64.2425 43.5295 64.2274 43.5891 64.2363L54.5357 65.8908C54.5649 65.8952 54.593 65.9052 54.6184 65.9204C54.6437 65.9356 54.6657 65.9556 54.6833 65.9793C54.7008 66.003 54.7135 66.0298 54.7206 66.0584C54.7276 66.087 54.729 66.1166 54.7245 66.1457C54.7163 66.1998 54.6884 66.249 54.6462 66.284C54.6039 66.319 54.5502 66.3374 54.4952 66.3357Z" fill="white"/>
<path id="Vector_62" d="M49.1396 69.3093H49.1059L42.9651 68.3837C42.9355 68.3793 42.9072 68.3692 42.8816 68.3539C42.856 68.3386 42.8337 68.3184 42.816 68.2945C42.7983 68.2706 42.7854 68.2435 42.7782 68.2147C42.771 68.1859 42.7696 68.156 42.774 68.1266C42.7784 68.0972 42.7886 68.069 42.804 68.0436C42.8194 68.0181 42.8397 67.996 42.8637 67.9783C42.8877 67.9607 42.9149 67.9479 42.9439 67.9407C42.9729 67.9336 43.003 67.9321 43.0325 67.9366L49.1779 68.8622C49.2071 68.8665 49.2352 68.8766 49.2605 68.8918C49.2858 68.907 49.3079 68.927 49.3254 68.9506C49.343 68.9743 49.3556 69.0012 49.3627 69.0298C49.3698 69.0583 49.3711 69.088 49.3667 69.117C49.359 69.1712 49.3317 69.2206 49.2898 69.256C49.248 69.2914 49.1946 69.3104 49.1396 69.3093Z" fill="white"/>
<path id="Vector_63" d="M57.5494 88.2979L31.7002 88.3515C31.0444 88.3515 30.4155 88.0924 29.9519 87.6312C29.4882 87.17 29.2277 86.5444 29.2277 85.8922L29.1895 68.5335C29.1895 67.8813 29.4499 67.2557 29.9136 66.7945C30.3773 66.3333 31.0062 66.0742 31.662 66.0742L57.5112 66.0205C58.1669 66.0205 58.7958 66.2796 59.2595 66.7408C59.7232 67.2021 59.9837 67.8276 59.9837 68.4799L60.0197 85.8407C60.0191 86.4922 59.7586 87.1169 59.2955 87.5776C58.8323 88.0382 58.2044 88.2973 57.5494 88.2979Z" fill="white"/>
<path id="Vector_64" d="M31.6965 88.5751C30.9811 88.5751 30.295 88.2924 29.7892 87.7893C29.2833 87.2861 28.9991 86.6037 28.9991 85.8922L28.9609 68.5313C28.9609 67.8197 29.2451 67.1373 29.751 66.6341C30.2568 66.131 30.9429 65.8483 31.6582 65.8483L57.5074 65.7947C58.2228 65.7947 58.9089 66.0773 59.4147 66.5805C59.9206 67.0836 60.2047 67.7661 60.2047 68.4776L60.2407 85.8363C60.2407 86.5478 59.9565 87.2302 59.4507 87.7334C58.9448 88.2365 58.2588 88.5192 57.5434 88.5192L31.6942 88.5729L31.6965 88.5751ZM57.5097 66.2485L31.6605 66.3022C31.0643 66.3022 30.4926 66.5378 30.0711 66.957C29.6496 67.3763 29.4127 67.945 29.4127 68.538L29.4509 85.8966C29.4509 86.4896 29.6878 87.0583 30.1093 87.4776C30.5308 87.8969 31.1026 88.1324 31.6987 88.1324L57.5479 88.0788C58.144 88.0788 58.7158 87.8432 59.1373 87.4239C59.5588 87.0046 59.7957 86.4359 59.7957 85.843L59.7597 68.4843C59.7597 68.1905 59.7015 67.8996 59.5884 67.6282C59.4753 67.3568 59.3095 67.1102 59.1005 66.9026C58.8916 66.695 58.6435 66.5303 58.3706 66.4181C58.0976 66.3059 57.8051 66.2482 57.5097 66.2485Z" fill="#383838"/>
<path id="Vector_65" d="M57.7596 61.8485L51.2411 61.8619C50.6586 61.8649 50.101 62.097 49.69 62.5075C49.2789 62.918 49.0479 63.4736 49.0473 64.053V67.1563L32.533 67.1898C31.6423 67.1951 30.7899 67.5508 30.162 68.1792C29.5341 68.8075 29.1816 69.6575 29.1816 70.5435L29.2154 86.1336C29.2207 87.0196 29.5783 87.8674 30.21 88.492C30.8417 89.1166 31.6963 89.4672 32.587 89.4672L56.6582 89.418C57.5489 89.4127 58.4013 89.057 59.0292 88.4286C59.6572 87.8003 60.0096 86.9503 60.0096 86.0643L59.9781 70.7939V70.4742L59.9647 64.0306C59.9617 63.4509 59.7281 62.8959 59.3149 62.487C58.9017 62.078 58.3425 61.8485 57.7596 61.8485Z" fill="#383838"/>
<path id="Vector_66" d="M32.5806 89.7981C31.6021 89.7969 30.6639 89.4102 29.9713 88.7226C29.2787 88.035 28.8882 87.1025 28.8853 86.1292L28.8516 70.539C28.851 69.5643 29.2389 68.6292 29.9303 67.9385C30.6217 67.2478 31.5602 66.858 32.5401 66.8544L48.724 66.8209V64.053C48.724 63.3849 48.99 62.744 49.4639 62.2705C49.9378 61.797 50.581 61.5295 51.2527 61.5266L57.7712 61.5132C58.4421 61.5137 59.0854 61.7788 59.5602 62.2502C60.035 62.7217 60.3026 63.3611 60.3044 64.0284L60.3516 86.0643C60.3528 87.0392 59.9651 87.9747 59.2735 88.6655C58.582 89.3563 57.6431 89.7459 56.663 89.7489L32.5918 89.7981H32.5806ZM57.7555 62.1839L51.237 62.1973C50.7439 62.2003 50.272 62.397 49.9242 62.7446C49.5764 63.0923 49.3809 63.5626 49.3803 64.053V67.1563C49.3798 67.2451 49.3443 67.3302 49.2814 67.3933C49.2182 67.4562 49.1325 67.4916 49.0432 67.4916L32.5289 67.5252C31.728 67.5281 30.961 67.8468 30.396 68.4113C29.831 68.9759 29.5141 69.7402 29.5147 70.5368L29.5484 86.1292C29.5507 86.9248 29.87 87.687 30.4362 88.249C31.0025 88.8109 31.7695 89.1268 32.5694 89.1273L56.6406 89.0782C57.4418 89.0752 58.2091 88.7562 58.7742 88.1912C59.3393 87.6262 59.656 86.8613 59.6548 86.0643L59.6076 64.0307C59.6064 63.5408 59.4101 63.0715 59.0617 62.7253C58.7133 62.3792 58.2411 62.1845 57.7487 62.1839H57.7555Z" fill="#383838"/>
<path id="Vector_67" opacity="0.12" d="M57.5348 64.3347L51.6907 64.3481C51.1694 64.3505 50.6703 64.5581 50.3026 64.9256C49.9348 65.293 49.7284 65.7904 49.7284 66.3089V69.0858L34.9516 69.1171C34.1553 69.1212 33.393 69.4386 32.8312 69.9999C32.2694 70.5613 31.9537 71.3209 31.9531 72.113L31.9823 86.0643C31.9865 86.8566 32.3055 87.6151 32.8698 88.1743C33.4341 88.7334 34.1978 89.0479 34.9943 89.0491L56.5323 89.0021C57.3286 88.998 58.091 88.6806 58.6528 88.1193C59.2146 87.5579 59.5303 86.7983 59.5308 86.0062L59.5016 72.3411V72.0549L59.4881 66.2866C59.4858 65.7712 59.2795 65.2774 58.914 64.9121C58.5484 64.5468 58.053 64.3394 57.5348 64.3347Z" fill="white"/>
<path id="Vector_68" d="M57.8735 86.1985C57.8731 86.4142 57.8083 86.6249 57.6875 86.804C57.5667 86.9831 57.3953 87.1226 57.1948 87.2049C56.9943 87.2871 56.7739 87.3084 56.5612 87.2661C56.3486 87.2237 56.1534 87.1196 56.0002 86.9669C55.847 86.8143 55.7427 86.6198 55.7006 86.4083C55.6585 86.1967 55.6803 85.9774 55.7634 85.7782C55.8465 85.5789 55.9871 85.4087 56.1674 85.2889C56.3478 85.1691 56.5597 85.1052 56.7766 85.1052C56.9208 85.1052 57.0637 85.1335 57.1969 85.1884C57.3301 85.2434 57.4511 85.324 57.553 85.4255C57.6549 85.5271 57.7357 85.6476 57.7906 85.7802C57.8456 85.9129 57.8738 86.055 57.8735 86.1985Z" fill="white"/>
<path id="Vector_69" d="M58.6423 67.742C58.5827 67.742 58.5255 67.7185 58.4834 67.6765C58.4412 67.6346 58.4175 67.5778 58.4175 67.5185V64.5471C58.4036 64.2984 58.2918 64.0651 58.1063 63.8978C57.9208 63.7304 57.6765 63.6424 57.4263 63.6528H55.2482C55.1886 63.6528 55.1314 63.6292 55.0893 63.5873C55.0471 63.5454 55.0234 63.4885 55.0234 63.4292C55.0234 63.3699 55.0471 63.313 55.0893 63.2711C55.1314 63.2292 55.1886 63.2056 55.2482 63.2056H57.4263C57.7957 63.1953 58.1542 63.3305 58.424 63.5817C58.6938 63.8329 58.853 64.1798 58.8671 64.5471V67.5185C58.8671 67.5778 58.8434 67.6346 58.8013 67.6765C58.7591 67.7185 58.7019 67.742 58.6423 67.742Z" fill="white"/>
<path id="Vector_70" d="M42.5627 76.56C42.4513 76.5598 42.3425 76.5266 42.2501 76.4648C42.1577 76.4029 42.0859 76.3151 42.0438 76.2126C42.0016 76.1101 41.991 75.9974 42.0134 75.8889C42.0357 75.7803 42.09 75.6809 42.1693 75.6031L44.8104 73.0208L47.4088 75.6053C47.4626 75.6568 47.5055 75.7184 47.535 75.7866C47.5646 75.8547 47.5802 75.928 47.5809 76.0023C47.5817 76.0765 47.5675 76.1501 47.5394 76.2188C47.5112 76.2876 47.4696 76.35 47.4169 76.4026C47.3642 76.4551 47.3015 76.4967 47.2325 76.5249C47.1635 76.5531 47.0895 76.5674 47.0149 76.5668C46.9403 76.5663 46.8666 76.551 46.798 76.5218C46.7294 76.4926 46.6673 76.4501 46.6154 76.3968L44.8037 74.5947L42.956 76.399C42.8513 76.5021 42.71 76.5599 42.5627 76.56Z" fill="white"/>
<path id="Vector_71" d="M44.7885 80.0232C44.6395 80.0232 44.4965 79.9643 44.3912 79.8595C44.2858 79.7547 44.2266 79.6125 44.2266 79.4643V73.8077C44.2266 73.6595 44.2858 73.5173 44.3912 73.4125C44.4965 73.3077 44.6395 73.2488 44.7885 73.2488C44.9375 73.2488 45.0805 73.3077 45.1859 73.4125C45.2912 73.5173 45.3504 73.6595 45.3504 73.8077V79.4643C45.3504 79.6125 45.2912 79.7547 45.1859 79.8595C45.0805 79.9643 44.9375 80.0232 44.7885 80.0232Z" fill="white"/>
<path id="Vector_72" d="M48.9157 82.7084H40.5765C40.2563 82.7078 39.9494 82.5812 39.7228 82.3562C39.4962 82.1313 39.3684 81.8262 39.3672 81.5078V78.4939C39.3672 78.3457 39.4264 78.2035 39.5318 78.0987C39.6372 77.9939 39.7801 77.935 39.9291 77.935C40.0782 77.935 40.2211 77.9939 40.3265 78.0987C40.4319 78.2035 40.4911 78.3457 40.4911 78.4939V81.5078C40.4917 81.5299 40.5009 81.551 40.5169 81.5664C40.5328 81.5819 40.5542 81.5905 40.5765 81.5905H48.9157C48.9556 81.5905 48.9939 81.5747 49.0221 81.5466C49.0504 81.5185 49.0663 81.4804 49.0663 81.4407V78.4939C49.0663 78.4205 49.0808 78.3479 49.109 78.28C49.1373 78.2122 49.1787 78.1506 49.2308 78.0987C49.283 78.0468 49.345 78.0056 49.4131 77.9775C49.4813 77.9495 49.5544 77.935 49.6282 77.935C49.702 77.935 49.7751 77.9495 49.8432 77.9775C49.9114 78.0056 49.9734 78.0468 50.0255 78.0987C50.0777 78.1506 50.1191 78.2122 50.1474 78.28C50.1756 78.3479 50.1901 78.4205 50.1901 78.4939V81.4407C50.1901 81.7769 50.0559 82.0994 49.8168 82.3371C49.5778 82.5748 49.2537 82.7084 48.9157 82.7084Z" fill="white"/>
<path id="Vector_73" d="M118.869 63.244L94.7976 63.2942C92.9429 63.298 91.4426 64.7966 91.4465 66.6414L91.4793 82.2337C91.4832 84.0785 92.9898 85.5709 94.8445 85.567L118.916 85.5169C120.77 85.513 122.271 84.0144 122.267 82.1696L122.234 66.5773C122.23 64.7325 120.723 63.2401 118.869 63.244Z" fill="#383838"/>
<path id="Vector_74" d="M94.8381 85.9011C93.8605 85.897 92.924 85.5094 92.2321 84.8224C91.5401 84.1354 91.1487 83.2046 91.1428 82.2322L91.1113 66.6421C91.1101 65.6672 91.4979 64.7317 92.1894 64.0409C92.881 63.3501 93.8198 62.9604 94.7999 62.9575L118.869 62.9083C119.847 62.9095 120.785 63.2959 121.477 63.983C122.17 64.6701 122.561 65.6021 122.564 66.575L122.598 82.1674C122.598 83.1418 122.21 84.0768 121.519 84.7671C120.828 85.4574 119.889 85.8467 118.909 85.8497L94.8381 85.9011ZM118.878 63.579L94.8066 63.6282C94.0058 63.6312 93.2388 63.9498 92.6738 64.5144C92.1087 65.0789 91.7918 65.8432 91.7924 66.6398L91.8239 82.23C91.828 83.0252 92.1478 83.7867 92.7135 84.3486C93.2793 84.9105 94.0453 85.2274 94.8448 85.2304L118.916 85.179C119.717 85.1748 120.483 84.8559 121.048 84.2916C121.614 83.7274 121.931 82.9638 121.933 82.1674L121.899 66.5772C121.896 65.7818 121.576 65.0199 121.01 64.4581C120.444 63.8963 119.678 63.5802 118.878 63.579Z" fill="#383838"/>
<path id="Vector_75" d="M118.869 63.244L94.7976 63.2942C92.9429 63.298 91.4426 64.7966 91.4465 66.6414L91.4793 82.2337C91.4832 84.0785 92.9898 85.5709 94.8445 85.567L118.916 85.5169C120.77 85.513 122.271 84.0144 122.267 82.1696L122.234 66.5773C122.23 64.7325 120.723 63.2401 118.869 63.244Z" fill="#7EBC59"/>
<path id="Vector_76" d="M94.8381 85.9011C93.8605 85.897 92.924 85.5094 92.2321 84.8224C91.5401 84.1354 91.1487 83.2046 91.1428 82.2322L91.1113 66.6421C91.1101 65.6672 91.4979 64.7317 92.1894 64.0409C92.881 63.3501 93.8198 62.9604 94.7999 62.9575L118.869 62.9083C119.847 62.9095 120.785 63.2959 121.477 63.983C122.17 64.6701 122.561 65.6021 122.564 66.575L122.598 82.1674C122.598 83.1418 122.21 84.0768 121.519 84.7671C120.828 85.4574 119.889 85.8467 118.909 85.8497L94.8381 85.9011ZM118.878 63.579L94.8066 63.6282C94.0058 63.6312 93.2388 63.9498 92.6738 64.5144C92.1087 65.0789 91.7918 65.8432 91.7924 66.6398L91.8239 82.23C91.828 83.0252 92.1478 83.7867 92.7135 84.3486C93.2793 84.9105 94.0453 85.2274 94.8448 85.2304L118.916 85.179C119.717 85.1748 120.483 84.8559 121.048 84.2916C121.614 83.7274 121.931 82.9638 121.933 82.1674L121.899 66.5772C121.896 65.7818 121.576 65.0199 121.01 64.4581C120.444 63.8963 119.678 63.5802 118.878 63.579Z" fill="#383838"/>
<path id="Vector_77" opacity="0.24" d="M118.869 63.244L94.7976 63.2942C92.9429 63.298 91.4426 64.7966 91.4465 66.6414L91.4793 82.2337C91.4832 84.0785 92.9898 85.5709 94.8445 85.567L118.916 85.5169C120.77 85.513 122.271 84.0144 122.267 82.1696L122.234 66.5773C122.23 64.7325 120.723 63.2401 118.869 63.244Z" fill="#383838"/>
<path id="Vector_78" d="M119.755 64.6328L93.9078 64.6867C92.5435 64.6895 91.4398 65.7919 91.4427 67.1489L91.4792 84.5075C91.4821 85.8646 92.5904 86.9623 93.9547 86.9595L119.802 86.9057C121.166 86.9028 122.27 85.8004 122.267 84.4434L122.23 67.0848C122.227 65.7278 121.119 64.63 119.755 64.6328Z" fill="white"/>
<path id="Vector_79" d="M93.952 87.1822C93.2366 87.1822 92.5506 86.8995 92.0447 86.3964C91.5389 85.8932 91.2547 85.2108 91.2547 84.4993L91.2188 67.1406C91.2188 66.4291 91.5029 65.7466 92.0088 65.2435C92.5146 64.7403 93.2007 64.4577 93.9161 64.4577L119.765 64.404C120.481 64.404 121.167 64.6867 121.673 65.1898C122.178 65.693 122.463 66.3754 122.463 67.087L122.499 84.4456C122.499 85.1572 122.214 85.8396 121.708 86.3427C121.203 86.8459 120.517 87.1285 119.801 87.1285L93.952 87.1822ZM119.801 86.6814C120.397 86.6814 120.969 86.4458 121.391 86.0265C121.812 85.6073 122.049 85.0386 122.049 84.4456L122.013 67.087C122.013 66.494 121.776 65.9253 121.355 65.506C120.933 65.0867 120.361 64.8512 119.765 64.8512L93.9161 64.9048C93.3199 64.9048 92.7482 65.1404 92.3267 65.5597C91.9051 65.979 91.6683 66.5477 91.6683 67.1406L91.7043 84.5015C91.7043 85.0945 91.9411 85.6631 92.3626 86.0824C92.7842 86.5017 93.3559 86.7373 93.952 86.7373L119.801 86.6814Z" fill="#383838"/>
<path id="Vector_80" d="M119.805 88.2979L93.9558 88.3515C93.3 88.3515 92.6711 88.0924 92.2074 87.6312C91.7437 87.17 91.4832 86.5444 91.4832 85.8922L91.4473 68.5335C91.4473 67.8813 91.7078 67.2557 92.1715 66.7945C92.6351 66.3333 93.264 66.0742 93.9198 66.0742L119.769 66.0205C120.425 66.0205 121.054 66.2796 121.517 66.7408C121.981 67.2021 122.242 67.8276 122.242 68.4799L122.28 85.8407C122.279 86.1637 122.215 86.4835 122.091 86.7817C121.966 87.08 121.784 87.351 121.554 87.5791C121.324 87.8073 121.051 87.9882 120.751 88.1115C120.451 88.2349 120.13 88.2982 119.805 88.2979Z" fill="white"/>
<path id="Vector_81" d="M93.952 88.5751C93.2366 88.5751 92.5506 88.2924 92.0447 87.7893C91.5389 87.2861 91.2547 86.6037 91.2547 85.8922L91.2188 68.5313C91.2188 67.8197 91.5029 67.1373 92.0088 66.6341C92.5146 66.131 93.2007 65.8483 93.9161 65.8483L119.765 65.7947C120.481 65.7947 121.167 66.0773 121.673 66.5805C122.178 67.0836 122.463 67.7661 122.463 68.4776L122.499 85.8363C122.499 86.5478 122.214 87.2302 121.708 87.7334C121.203 88.2365 120.517 88.5192 119.801 88.5192L93.952 88.5729V88.5751ZM119.765 66.2485L93.9161 66.3022C93.3199 66.3022 92.7482 66.5378 92.3267 66.957C91.9051 67.3763 91.6683 67.945 91.6683 68.538L91.7043 85.8966C91.7043 86.4896 91.9411 87.0583 92.3626 87.4776C92.7842 87.8969 93.3559 88.1324 93.952 88.1324L119.801 88.0788C120.397 88.0788 120.969 87.8432 121.391 87.4239C121.812 87.0046 122.049 86.4359 122.049 85.843L122.013 68.4843C122.013 68.1907 121.955 67.9 121.842 67.6287C121.729 67.3575 121.563 67.111 121.355 66.9034C121.146 66.6958 120.898 66.5311 120.625 66.4187C120.353 66.3064 120.06 66.2485 119.765 66.2485Z" fill="#383838"/>
<path id="Vector_82" d="M120.017 61.8485L113.499 61.8619C112.916 61.8649 112.359 62.097 111.948 62.5076C111.538 62.9182 111.307 63.4738 111.307 64.053V67.1563L94.7928 67.1898C93.9021 67.1951 93.0497 67.5508 92.4218 68.1792C91.7938 68.8075 91.4414 69.6575 91.4414 70.5435L91.4729 86.1336C91.4782 87.0196 91.8358 87.8674 92.4675 88.492C93.0993 89.1166 93.9538 89.4672 94.8445 89.4672L118.916 89.418C119.806 89.4127 120.659 89.057 121.287 88.4286C121.915 87.8003 122.267 86.9503 122.267 86.0643L122.233 70.7939V70.4742L122.22 64.0306C122.217 63.4513 121.984 62.8966 121.571 62.4878C121.158 62.0789 120.6 61.8491 120.017 61.8485Z" fill="#7EBC59"/>
<path id="Vector_83" d="M94.8364 89.7981C93.8575 89.7975 92.9188 89.411 92.2257 88.7234C91.5327 88.0357 91.1419 87.1029 91.1389 86.1292L91.1074 70.539C91.1068 69.5643 91.4947 68.6292 92.1862 67.9385C92.8776 67.2478 93.8161 66.858 94.796 66.8544L110.98 66.8209V64.053C110.98 63.3849 111.246 62.744 111.72 62.2705C112.194 61.797 112.837 61.5295 113.509 61.5266L120.027 61.5132C120.698 61.5143 121.341 61.7795 121.816 62.2507C122.291 62.722 122.56 63.3611 122.563 64.0284L122.61 86.0643C122.608 87.0383 122.219 87.9721 121.528 88.6623C120.837 89.3524 119.9 89.743 118.921 89.7489L94.8499 89.7981H94.8364ZM120.011 62.1839L113.493 62.1973C113 62.2003 112.528 62.397 112.18 62.7446C111.832 63.0923 111.637 63.5626 111.636 64.053V67.1563C111.636 67.2002 111.628 67.2438 111.611 67.2845C111.595 67.3251 111.57 67.3621 111.539 67.3933C111.508 67.4245 111.471 67.4492 111.43 67.4661C111.389 67.483 111.345 67.4917 111.301 67.4916L94.787 67.5252C93.9862 67.5281 93.2192 67.8468 92.6541 68.4113C92.0891 68.9759 91.7722 69.7402 91.7728 70.5368L91.8042 86.1292C91.8072 86.925 92.127 87.6872 92.6935 88.2491C93.2601 88.811 94.0274 89.1268 94.8275 89.1273L118.899 89.0782C119.7 89.074 120.467 88.7547 121.032 88.19C121.597 87.6254 121.915 86.8611 121.915 86.0643L121.868 64.0307C121.865 63.541 121.668 63.0723 121.319 62.7265C120.971 62.3806 120.499 62.1856 120.007 62.1839H120.011Z" fill="#383838"/>
<path id="Vector_84" opacity="0.12" d="M119.721 64.3347L113.888 64.3481C113.366 64.3505 112.867 64.5581 112.5 64.9256C112.132 65.293 111.925 65.7904 111.925 66.3089V69.0858L97.1509 69.1171C96.3542 69.12 95.5912 69.437 95.0291 69.9986C94.467 70.5602 94.1517 71.3206 94.1523 72.113L94.1816 86.0643C94.1851 86.8568 94.504 87.6156 95.0684 88.1749C95.6328 88.7342 96.3969 89.0485 97.1936 89.0491L118.729 89.0021C119.125 89.0027 119.517 88.9257 119.883 88.7753C120.249 88.625 120.581 88.4044 120.861 88.1261C121.141 87.8478 121.363 87.5173 121.515 87.1536C121.666 86.7898 121.744 86.3999 121.744 86.0062L121.717 72.3411V72.0549L121.705 66.2866C121.704 66.0288 121.651 65.7738 121.551 65.5362C121.45 65.2986 121.304 65.083 121.119 64.9018C120.935 64.7205 120.717 64.5771 120.477 64.4799C120.237 64.3826 119.98 64.3332 119.721 64.3347Z" fill="white"/>
<path id="Vector_85" d="M120.065 86.1985C120.065 86.4148 120.001 86.6263 119.88 86.8061C119.759 86.9859 119.587 87.1261 119.386 87.2088C119.185 87.2914 118.964 87.313 118.751 87.2706C118.538 87.2282 118.342 87.1239 118.188 86.9707C118.035 86.8176 117.93 86.6226 117.888 86.4104C117.846 86.1982 117.868 85.9783 117.952 85.7785C118.035 85.5788 118.176 85.4082 118.357 85.2883C118.538 85.1685 118.751 85.1047 118.969 85.1052C119.26 85.1058 119.539 85.2212 119.744 85.4262C119.95 85.6311 120.065 85.9089 120.065 86.1985Z" fill="white"/>
<path id="Vector_86" d="M120.843 67.742C120.784 67.742 120.726 67.7185 120.684 67.6765C120.642 67.6346 120.618 67.5778 120.618 67.5185V64.5471C120.604 64.2984 120.493 64.0651 120.307 63.8978C120.122 63.7304 119.877 63.6424 119.627 63.6528H117.451C117.392 63.6528 117.335 63.6292 117.292 63.5873C117.25 63.5454 117.227 63.4885 117.227 63.4292C117.227 63.3699 117.25 63.313 117.292 63.2711C117.335 63.2292 117.392 63.2056 117.451 63.2056H119.627C119.997 63.1953 120.355 63.3305 120.625 63.5817C120.895 63.8329 121.054 64.1798 121.068 64.5471V67.5185C121.068 67.5778 121.044 67.6346 121.002 67.6765C120.96 67.7185 120.903 67.742 120.843 67.742Z" fill="white"/>
<path id="Vector_87" d="M107.722 80.2513L105.123 77.6645C105.028 77.558 104.977 77.4191 104.981 77.2763C104.985 77.1335 105.044 76.9977 105.145 76.8967C105.247 76.7957 105.383 76.7372 105.527 76.7332C105.67 76.7292 105.81 76.78 105.917 76.8752L107.729 78.6773L109.576 76.8708C109.683 76.7695 109.826 76.7141 109.973 76.7166C110.121 76.7191 110.262 76.7793 110.365 76.8841C110.469 76.989 110.526 77.1301 110.526 77.277C110.525 77.4238 110.467 77.5646 110.363 77.6689L107.722 80.2513Z" fill="white"/>
<path id="Vector_88" d="M107.744 80.0232C107.595 80.0232 107.452 79.9643 107.346 79.8595C107.241 79.7547 107.182 79.6125 107.182 79.4643V73.8077C107.182 73.6595 107.241 73.5173 107.346 73.4125C107.452 73.3077 107.595 73.2488 107.744 73.2488C107.893 73.2488 108.036 73.3077 108.141 73.4125C108.246 73.5173 108.306 73.6595 108.306 73.8077V79.4643C108.306 79.6125 108.246 79.7547 108.141 79.8595C108.036 79.9643 107.893 80.0232 107.744 80.0232Z" fill="white"/>
<path id="Vector_89" d="M111.881 82.7084H103.535C103.215 82.7078 102.909 82.5811 102.682 82.3561C102.456 82.1311 102.329 81.826 102.328 81.5078V78.4939C102.328 78.3457 102.387 78.2035 102.493 78.0987C102.598 77.9939 102.741 77.935 102.89 77.935C103.039 77.935 103.182 77.9939 103.287 78.0987C103.393 78.2035 103.452 78.3457 103.452 78.4939V81.5078C103.453 81.5295 103.462 81.5503 103.477 81.5657C103.492 81.581 103.513 81.5899 103.535 81.5905H111.877C111.896 81.5905 111.916 81.5866 111.934 81.5791C111.952 81.5715 111.968 81.5604 111.982 81.5465C111.996 81.5326 112.007 81.516 112.014 81.4979C112.022 81.4797 112.025 81.4603 112.025 81.4407V78.4939C112.025 78.3457 112.084 78.2035 112.19 78.0987C112.295 77.9939 112.438 77.935 112.587 77.935C112.736 77.935 112.879 77.9939 112.984 78.0987C113.09 78.2035 113.149 78.3457 113.149 78.4939V81.4407C113.149 81.7758 113.015 82.0972 112.778 82.3347C112.54 82.5723 112.218 82.7066 111.881 82.7084Z" fill="white"/>
<path id="Vector_90" d="M116.202 44.2797L105.099 36.3202C104.97 36.2277 104.79 36.2568 104.697 36.385L93.8548 51.349C93.7619 51.4773 93.7911 51.6561 93.92 51.7485L105.024 59.7081C105.152 59.8005 105.332 59.7715 105.425 59.6433L116.267 44.6792C116.36 44.551 116.331 44.3722 116.202 44.2797Z" fill="white"/>
<path id="Vector_91" d="M105.186 60.1113C105.056 60.1109 104.929 60.0703 104.824 59.9951L93.7176 52.0334C93.5837 51.9367 93.4936 51.7912 93.4671 51.6287C93.4406 51.4662 93.4797 51.2999 93.576 51.1659L104.421 36.1884C104.469 36.1219 104.53 36.0655 104.599 36.0225C104.669 35.9795 104.747 35.9508 104.828 35.938C104.909 35.9246 104.991 35.9273 105.071 35.9461C105.15 35.9649 105.225 35.9994 105.291 36.0476L116.397 44.0137C116.531 44.11 116.621 44.2551 116.648 44.4172C116.674 44.5794 116.635 44.7454 116.539 44.8789L105.694 59.843C105.646 59.9096 105.585 59.966 105.516 60.009C105.446 60.052 105.368 60.0807 105.287 60.0934L105.186 60.1113ZM94.1536 51.5103L105.168 59.4115L115.957 44.5279L104.943 36.6244L94.1536 51.5103Z" fill="#383838"/>
<path id="Vector_92" d="M116.202 44.2797L105.099 36.3202C104.97 36.2277 104.79 36.2568 104.697 36.385L93.8548 51.349C93.7619 51.4773 93.7911 51.6561 93.92 51.7485L105.024 59.7081C105.152 59.8005 105.332 59.7715 105.425 59.6433L116.267 44.6792C116.36 44.551 116.331 44.3722 116.202 44.2797Z" fill="#5B913B"/>
<path id="Vector_93" d="M105.186 60.1113C105.056 60.1109 104.929 60.0703 104.824 59.9951L93.7176 52.0334C93.5837 51.9367 93.4936 51.7912 93.4671 51.6287C93.4406 51.4662 93.4797 51.2999 93.576 51.1659L104.421 36.1884C104.469 36.1219 104.53 36.0655 104.599 36.0225C104.669 35.9795 104.747 35.9508 104.828 35.938C104.909 35.9246 104.991 35.9273 105.071 35.9461C105.15 35.9649 105.225 35.9994 105.291 36.0476L116.397 44.0137C116.531 44.11 116.621 44.2551 116.648 44.4172C116.674 44.5794 116.635 44.7454 116.539 44.8789L105.694 59.843C105.646 59.9096 105.585 59.966 105.516 60.009C105.446 60.052 105.368 60.0807 105.287 60.0934L105.186 60.1113ZM94.1536 51.5103L105.168 59.4115L115.957 44.5279L104.943 36.6244L94.1536 51.5103Z" fill="#383838"/>
<path id="Vector_94" d="M111.819 47.7005C111.771 47.7006 111.725 47.6858 111.686 47.658L109.771 46.2852C109.726 46.2495 109.696 46.1977 109.688 46.1406C109.68 46.0834 109.694 46.0254 109.728 45.9786C109.762 45.9318 109.813 45.8999 109.87 45.8895C109.927 45.8792 109.986 45.8912 110.034 45.923L111.949 47.2958C111.988 47.3234 112.016 47.3624 112.031 47.4072C112.046 47.452 112.046 47.5002 112.032 47.5451C112.017 47.59 111.989 47.6292 111.951 47.6571C111.913 47.685 111.866 47.7002 111.819 47.7005Z" fill="#383838"/>
<path id="Vector_95" d="M109.764 50.5377C109.717 50.537 109.67 50.5222 109.631 50.4952L101.247 44.4832C101.222 44.4665 101.2 44.445 101.184 44.4198C101.167 44.3947 101.156 44.3665 101.15 44.3368C101.145 44.3072 101.145 44.2767 101.152 44.2474C101.159 44.218 101.171 44.1902 101.189 44.1658C101.207 44.1414 101.229 44.1208 101.255 44.1052C101.281 44.0897 101.31 44.0795 101.34 44.0753C101.37 44.0711 101.401 44.073 101.43 44.0808C101.459 44.0887 101.486 44.1023 101.51 44.121L109.894 50.1308C109.934 50.1581 109.963 50.1972 109.979 50.2424C109.994 50.2876 109.994 50.3365 109.98 50.382C109.965 50.4274 109.936 50.4671 109.898 50.4951C109.859 50.5231 109.812 50.538 109.764 50.5377Z" fill="#383838"/>
<path id="Vector_96" d="M108.367 52.4649C108.32 52.4658 108.273 52.4517 108.235 52.4247L104.903 50.0346C104.878 50.018 104.857 49.9965 104.84 49.9713C104.823 49.9462 104.812 49.9179 104.806 49.8883C104.801 49.8586 104.802 49.8282 104.808 49.7988C104.815 49.7694 104.828 49.7417 104.845 49.7173C104.863 49.6929 104.886 49.6722 104.911 49.6567C104.937 49.6411 104.966 49.631 104.996 49.6268C105.026 49.6226 105.057 49.6245 105.086 49.6323C105.115 49.6402 105.143 49.6538 105.166 49.6724L108.498 52.0625C108.536 52.0901 108.565 52.1291 108.579 52.1739C108.594 52.2187 108.594 52.2669 108.58 52.3118C108.565 52.3567 108.537 52.3959 108.499 52.4238C108.461 52.4517 108.415 52.4669 108.367 52.4672V52.4649Z" fill="#7EBC59"/>
<path id="Vector_97" d="M102.021 47.9173C101.974 47.917 101.928 47.9022 101.89 47.8749L99.8495 46.4127C99.8039 46.377 99.7739 46.3251 99.7659 46.268C99.7578 46.2108 99.7723 46.1528 99.8062 46.106C99.8402 46.0592 99.891 46.0273 99.9481 46.017C100.005 46.0066 100.064 46.0186 100.112 46.0505L102.153 47.5127C102.201 47.5475 102.233 47.5997 102.242 47.6579C102.252 47.7161 102.237 47.7756 102.203 47.8234C102.182 47.8523 102.155 47.8759 102.123 47.8922C102.092 47.9086 102.056 47.9172 102.021 47.9173Z" fill="#7EBC59"/>
<path id="Vector_98" d="M103.354 52.1519C103.307 52.1509 103.262 52.1361 103.224 52.1094L98.0538 48.407C98.0298 48.3897 98.0095 48.3679 97.994 48.3428C97.9786 48.3177 97.9683 48.2898 97.9637 48.2607C97.9591 48.2316 97.9603 48.2019 97.9673 48.1733C97.9742 48.1447 97.9868 48.1177 98.0043 48.094C98.039 48.0461 98.0913 48.0139 98.1499 48.0042C98.2084 47.9946 98.2684 48.0084 98.3167 48.0425L103.487 51.745C103.511 51.7623 103.532 51.7843 103.548 51.8098C103.564 51.8353 103.574 51.8637 103.579 51.8933C103.584 51.9229 103.582 51.9532 103.575 51.9822C103.567 52.0113 103.554 52.0386 103.536 52.0625C103.515 52.0905 103.487 52.1133 103.456 52.1288C103.424 52.1443 103.389 52.1523 103.354 52.1519Z" fill="#383838"/>
<path id="Vector_99" d="M113.46 38.9209L99.7568 33.6778C99.6085 33.621 99.442 33.6946 99.385 33.8421L92.248 52.2971C92.1909 52.4446 92.2649 52.6102 92.4132 52.667L106.117 57.9101C106.265 57.9669 106.431 57.8933 106.489 57.7458L113.626 39.2908C113.683 39.1433 113.609 38.9777 113.46 38.9209Z" fill="white"/>
<path id="Vector_100" d="M106.219 58.2646C106.142 58.2648 106.066 58.2504 105.995 58.2221L92.2968 52.9792C92.1425 52.9197 92.0182 52.8019 91.9508 52.6515C91.8834 52.5012 91.8785 52.3305 91.9372 52.1765L99.0716 33.7291C99.1309 33.5752 99.2493 33.4511 99.4006 33.384C99.5519 33.317 99.7238 33.3124 99.8785 33.3713L113.59 38.6165C113.744 38.676 113.868 38.7939 113.935 38.9443C114.002 39.0948 114.007 39.2655 113.947 39.4191L106.804 57.8756C106.757 57.9911 106.676 58.0899 106.572 58.1592C106.467 58.2285 106.345 58.2653 106.219 58.2646ZM92.5801 52.371L106.192 57.5782L113.293 39.2157L99.683 34.0063L92.5801 52.371Z" fill="#383838"/>
<path id="Vector_101" d="M113.46 38.9209L99.7568 33.6778C99.6085 33.621 99.442 33.6946 99.385 33.8421L92.248 52.2971C92.1909 52.4446 92.2649 52.6102 92.4132 52.667L106.117 57.9101C106.265 57.9669 106.431 57.8933 106.489 57.7458L113.626 39.2908C113.683 39.1433 113.609 38.9777 113.46 38.9209Z" fill="white"/>
<path id="Vector_102" d="M106.219 58.2646C106.142 58.2648 106.066 58.2504 105.995 58.2221L92.2968 52.9792C92.1425 52.9197 92.0182 52.8019 91.9508 52.6515C91.8834 52.5012 91.8785 52.3305 91.9372 52.1765L99.0716 33.7291C99.1309 33.5752 99.2493 33.4511 99.4006 33.384C99.5519 33.317 99.7238 33.3124 99.8785 33.3713L113.59 38.6165C113.744 38.676 113.868 38.7939 113.935 38.9443C114.002 39.0948 114.007 39.2655 113.947 39.4191L106.804 57.8756C106.757 57.9911 106.676 58.0899 106.572 58.1592C106.467 58.2285 106.345 58.2653 106.219 58.2646ZM92.5801 52.371L106.192 57.5782L113.293 39.2157L99.683 34.0063L92.5801 52.371Z" fill="#383838"/>
<path id="Vector_103" d="M102.188 40.5214C102.161 40.5213 102.133 40.5167 102.107 40.5079L99.7494 39.6136C99.6982 39.5894 99.658 39.5468 99.637 39.4944C99.6161 39.442 99.6158 39.3836 99.6363 39.331C99.6567 39.2784 99.6965 39.2354 99.7475 39.2107C99.7985 39.186 99.857 39.1814 99.9112 39.1978L102.269 40.0921C102.324 40.1136 102.369 40.156 102.393 40.21C102.417 40.264 102.419 40.3253 102.397 40.3805C102.381 40.4221 102.352 40.4578 102.315 40.4829C102.277 40.508 102.233 40.5214 102.188 40.5214Z" fill="#383838"/>
<path id="Vector_104" d="M108.433 47.1169C108.406 47.1169 108.378 47.1123 108.352 47.1035L98.033 43.1551C97.9772 43.1338 97.9323 43.0913 97.908 43.037C97.8838 42.9827 97.8823 42.921 97.9037 42.8656C97.9252 42.8102 97.9679 42.7655 98.0225 42.7414C98.0771 42.7172 98.1391 42.7157 98.1948 42.737L108.514 46.6966C108.563 46.7157 108.603 46.751 108.628 46.7964C108.654 46.8418 108.662 46.8945 108.653 46.9455C108.643 46.9966 108.616 47.0427 108.576 47.076C108.536 47.1093 108.485 47.1277 108.433 47.1281V47.1169Z" fill="#383838"/>
<path id="Vector_105" d="M107.518 49.4936C107.49 49.4927 107.463 49.4874 107.437 49.4779L103.334 47.9129C103.279 47.8914 103.235 47.849 103.211 47.795C103.187 47.7409 103.185 47.6796 103.206 47.6245C103.217 47.597 103.233 47.5719 103.253 47.5505C103.273 47.5291 103.297 47.5119 103.324 47.4999C103.351 47.4878 103.38 47.4812 103.41 47.4803C103.439 47.4794 103.469 47.4844 103.496 47.4948L107.598 49.0598C107.649 49.0779 107.691 49.113 107.717 49.159C107.743 49.205 107.753 49.2588 107.743 49.3108C107.733 49.3629 107.705 49.4099 107.664 49.4433C107.623 49.4768 107.571 49.4946 107.518 49.4936Z" fill="#7EBC59"/>
<path id="Vector_106" d="M99.7145 46.5043C99.6867 46.5046 99.6592 46.4992 99.6335 46.4887L97.1228 45.5295C97.0671 45.5082 97.0221 45.4657 96.9979 45.4114C96.9737 45.3571 96.9721 45.2954 96.9936 45.24C97.015 45.1845 97.0577 45.1398 97.1123 45.1157C97.1669 45.0916 97.2289 45.0901 97.2846 45.1114L99.7954 46.0728C99.8507 46.0943 99.8953 46.1367 99.9193 46.1907C99.9433 46.2448 99.9448 46.3061 99.9235 46.3612C99.9072 46.4032 99.8785 46.4394 99.8412 46.4649C99.8039 46.4905 99.7597 46.5042 99.7145 46.5043Z" fill="#7EBC59"/>
<path id="Vector_107" d="M102.246 50.5243C102.218 50.5234 102.191 50.5181 102.165 50.5086L95.808 48.0761C95.7568 48.0519 95.7166 48.0093 95.6956 47.9569C95.6746 47.9044 95.6744 47.8461 95.6948 47.7934C95.7153 47.7408 95.755 47.6978 95.806 47.6731C95.857 47.6484 95.9156 47.6438 95.9698 47.6602L102.326 50.0905C102.354 50.1009 102.38 50.1168 102.402 50.1371C102.423 50.1573 102.441 50.1817 102.453 50.2088C102.465 50.2358 102.471 50.265 102.472 50.2946C102.473 50.3242 102.468 50.3536 102.457 50.3812C102.44 50.4236 102.411 50.46 102.374 50.4855C102.336 50.5111 102.291 50.5246 102.246 50.5243Z" fill="#383838"/>
<path id="Vector_108" d="M88.6038 27.0934L72.3732 21.5818C72.1876 21.5187 71.9857 21.6173 71.9224 21.802L64.3536 43.8536C64.2902 44.0382 64.3893 44.239 64.5749 44.3021L80.8055 49.8137C80.9911 49.8767 81.193 49.7782 81.2563 49.5935L88.8251 27.5419C88.8885 27.3572 88.7894 27.1565 88.6038 27.0934Z" fill="#7EBC59"/>
<path id="Vector_109" d="M80.9167 50.171C80.8401 50.1717 80.764 50.1589 80.6919 50.133L64.4609 44.6218C64.3748 44.5926 64.2954 44.5468 64.2272 44.4871C64.1589 44.4273 64.1031 44.3548 64.0631 44.2736C64.023 44.1924 63.9994 44.1042 63.9936 44.014C63.9878 43.9237 63.9999 43.8332 64.0293 43.7476L71.5998 21.6961C71.6289 21.6103 71.6748 21.5311 71.7348 21.4631C71.7948 21.395 71.8677 21.3394 71.9494 21.2995C72.0311 21.2596 72.1199 21.2362 72.2107 21.2306C72.3016 21.225 72.3926 21.2373 72.4786 21.2668L88.7097 26.778C88.7957 26.8072 88.8751 26.853 88.9434 26.9127C89.0117 26.9725 89.0674 27.045 89.1075 27.1262C89.1476 27.2074 89.1712 27.2956 89.177 27.3858C89.1828 27.4761 89.1706 27.5666 89.1412 27.6522L81.5708 49.7037C81.5238 49.8394 81.4356 49.9572 81.3185 50.0409C81.2013 50.1246 81.0609 50.1701 80.9167 50.171ZM72.2583 21.8995C72.2544 21.8997 72.2505 21.9011 72.2473 21.9035C72.2441 21.9059 72.2417 21.9092 72.2404 21.9129L64.6699 43.9645C64.669 43.9689 64.6696 43.9735 64.6716 43.9776C64.6737 43.9817 64.677 43.9849 64.6812 43.9868L80.9122 49.4981C80.9122 49.4981 80.9324 49.4981 80.9347 49.4869L88.5051 27.4353C88.5057 27.4309 88.5049 27.4264 88.5029 27.4224C88.5009 27.4184 88.4978 27.4151 88.4939 27.413L72.2628 21.9017L72.2583 21.8995Z" fill="#383838"/>
<path id="Vector_110" d="M86.0981 24.4165L69.0024 23.0543C68.8069 23.0388 68.6357 23.1838 68.6201 23.3782L66.7495 46.6052C66.7338 46.7997 66.8796 46.97 67.0751 46.9855L84.1707 48.3477C84.3663 48.3633 84.5375 48.2183 84.5531 48.0238L86.4237 24.7968C86.4394 24.6024 86.2936 24.4321 86.0981 24.4165Z" fill="white"/>
<path id="Vector_111" d="M84.2054 48.6842H84.1492L67.0527 47.3226C66.8695 47.3075 66.6997 47.2206 66.5807 47.0812C66.5212 47.0128 66.4762 46.9333 66.4484 46.8472C66.4206 46.7611 66.4105 46.6704 66.4189 46.5803L68.289 23.3528C68.2961 23.2624 68.321 23.1744 68.3624 23.0936C68.4038 23.0129 68.4608 22.9411 68.5301 22.8823C68.5994 22.8236 68.6797 22.779 68.7664 22.7511C68.8531 22.7233 68.9445 22.7127 69.0353 22.72L86.1294 24.0839C86.3124 24.0981 86.4823 24.1841 86.6015 24.3229C86.7208 24.4617 86.7798 24.6419 86.7656 24.8239L84.8954 48.0515C84.8808 48.2239 84.8019 48.3847 84.6743 48.5022C84.5466 48.6196 84.3793 48.6854 84.2054 48.6865V48.6842ZM68.9746 23.3863C68.97 23.3868 68.9657 23.3888 68.9624 23.3921C68.9591 23.3953 68.9571 23.3996 68.9566 23.4042L67.0864 46.6318C67.0861 46.634 67.0863 46.6363 67.0869 46.6384C67.0876 46.6406 67.0887 46.6426 67.0902 46.6443C67.0917 46.646 67.0935 46.6474 67.0956 46.6483C67.0977 46.6492 67.0999 46.6497 67.1022 46.6497L84.1986 48.0135C84.2034 48.0128 84.2078 48.0107 84.2114 48.0075C84.215 48.0044 84.2176 48.0002 84.2188 47.9956L86.089 24.768C86.089 24.7657 86.0885 24.7633 86.0876 24.7612C86.0867 24.759 86.0854 24.757 86.0837 24.7554C86.082 24.7537 86.0801 24.7524 86.0779 24.7515C86.0757 24.7506 86.0734 24.7501 86.071 24.7501L68.9768 23.3863H68.9746Z" fill="#383838"/>
<path id="Vector_112" d="M83.5938 28.3296H83.5758L79.2466 27.9853C79.2171 27.9831 79.1883 27.975 79.1619 27.9616C79.1354 27.9483 79.112 27.9298 79.0927 27.9074C79.0735 27.8849 79.0589 27.8589 79.0499 27.8309C79.0408 27.8028 79.0374 27.7732 79.0398 27.7439C79.045 27.6849 79.0734 27.6304 79.1189 27.5922C79.1644 27.5541 79.2233 27.5354 79.2826 27.5404L83.6118 27.8847C83.6714 27.8871 83.7276 27.9129 83.7681 27.9565C83.8085 28.0001 83.8299 28.0579 83.8276 28.1172C83.8252 28.1765 83.7992 28.2325 83.7554 28.2727C83.7115 28.313 83.6534 28.3342 83.5938 28.3319V28.3296Z" fill="#7EBC59"/>
<path id="Vector_113" d="M83.4847 29.7047H83.4667L79.1352 29.3603C79.0756 29.3556 79.0204 29.3275 78.9816 29.2822C78.9428 29.2369 78.9237 29.1782 78.9285 29.1189C78.9332 29.0596 78.9615 29.0046 79.007 28.966C79.0525 28.9275 79.1116 28.9084 79.1712 28.9132L83.5026 29.2575C83.5623 29.2599 83.6185 29.2857 83.6589 29.3293C83.6994 29.3729 83.7208 29.4307 83.7184 29.49C83.716 29.5493 83.6901 29.6052 83.6462 29.6455C83.6024 29.6857 83.5443 29.707 83.4847 29.7047Z" fill="#7EBC59"/>
<path id="Vector_114" d="M73.344 44.501H73.326L68.9946 44.1567C68.935 44.152 68.8797 44.1239 68.8409 44.0786C68.8022 44.0333 68.7831 43.9746 68.7878 43.9153C68.7926 43.856 68.8209 43.801 68.8664 43.7624C68.9119 43.7238 68.971 43.7048 69.0306 43.7096L73.362 44.0561C73.4216 44.0585 73.4778 44.0843 73.5183 44.1279C73.5588 44.1715 73.5802 44.2293 73.5778 44.2886C73.5754 44.3479 73.5494 44.4039 73.5056 44.4441C73.4618 44.4844 73.4036 44.5057 73.344 44.5033V44.501Z" fill="#7EBC59"/>
<path id="Vector_115" d="M73.535 37.0156H73.5147L69.6643 36.7093C69.605 36.7042 69.5502 36.6759 69.5119 36.6307C69.4735 36.5854 69.4548 36.5268 69.4598 36.4679C69.4649 36.4093 69.4931 36.3551 69.5381 36.3171C69.5831 36.279 69.6414 36.2601 69.7003 36.2644L73.5507 36.5707C73.5802 36.5717 73.6092 36.5785 73.6361 36.5907C73.663 36.6029 73.6872 36.6202 73.7073 36.6417C73.7275 36.6632 73.7432 36.6884 73.7535 36.716C73.7638 36.7435 73.7686 36.7727 73.7676 36.8021C73.7666 36.8315 73.7597 36.8603 73.7475 36.8871C73.7352 36.9138 73.7178 36.9379 73.6962 36.9579C73.6746 36.9779 73.6492 36.9936 73.6216 37.0038C73.5939 37.0141 73.5645 37.0189 73.535 37.0179V37.0156Z" fill="#383838"/>
<path id="Vector_116" d="M75.8883 42.3435L69.2642 41.8159C69.2045 41.8111 69.1493 41.783 69.1105 41.7378C69.0717 41.6925 69.0526 41.6337 69.0574 41.5744C69.0621 41.5151 69.0904 41.4601 69.1359 41.4216C69.1814 41.383 69.2405 41.364 69.3001 41.3687L75.9243 41.8964C75.9839 41.8987 76.0401 41.9246 76.0806 41.9682C76.121 42.0118 76.1424 42.0696 76.14 42.1289C76.1377 42.1882 76.1117 42.2441 76.0678 42.2844C76.024 42.3246 75.9659 42.3459 75.9063 42.3435H75.8883Z" fill="#383838"/>
<path id="Vector_117" d="M74.49 39.6628H74.472L69.4595 39.2649C69.43 39.2626 69.4012 39.2545 69.3747 39.2412C69.3483 39.2278 69.3248 39.2094 69.3056 39.1869C69.2864 39.1645 69.2718 39.1385 69.2627 39.1104C69.2537 39.0823 69.2503 39.0528 69.2527 39.0234C69.255 38.994 69.2631 38.9653 69.2765 38.9391C69.29 38.9128 69.3085 38.8894 69.3311 38.8703C69.3536 38.8512 69.3798 38.8367 69.408 38.8277C69.4362 38.8186 69.4659 38.8153 69.4955 38.8177L74.508 39.2179C74.5375 39.2191 74.5665 39.226 74.5933 39.2383C74.6201 39.2507 74.6442 39.2681 74.6643 39.2897C74.6843 39.3113 74.6999 39.3366 74.7101 39.3642C74.7203 39.3918 74.7249 39.4211 74.7238 39.4504C74.7226 39.4798 74.7156 39.5086 74.7032 39.5353C74.6908 39.562 74.6733 39.586 74.6516 39.6059C74.6299 39.6258 74.6044 39.6413 74.5767 39.6515C74.549 39.6616 74.5195 39.6662 74.49 39.6651V39.6628Z" fill="#383838"/>
<path id="Vector_118" d="M82.8195 35.3947H82.8015L69.8364 34.3618C69.8069 34.3594 69.7781 34.3513 69.7518 34.3379C69.7254 34.3245 69.7019 34.306 69.6827 34.2836C69.6635 34.2612 69.649 34.2352 69.6399 34.2072C69.6307 34.1792 69.6273 34.1496 69.6296 34.1203C69.632 34.0909 69.6401 34.0623 69.6536 34.0361C69.6671 34.0099 69.6856 33.9865 69.7082 33.9674C69.7307 33.9483 69.7568 33.9338 69.785 33.9248C69.8132 33.9157 69.8429 33.9122 69.8724 33.9146L82.8374 34.9475C82.8971 34.9499 82.9533 34.9757 82.9937 35.0193C83.0342 35.0629 83.0556 35.1208 83.0532 35.18C83.0508 35.2393 83.0249 35.2953 82.981 35.3355C82.9372 35.3758 82.8791 35.3971 82.8195 35.3947Z" fill="#383838"/>
<path id="Vector_119" d="M82.2855 40.262H82.2676L76.0727 39.7657C76.0131 39.7609 75.9579 39.7328 75.9191 39.6875C75.8803 39.6422 75.8612 39.5835 75.866 39.5242C75.8707 39.4649 75.899 39.4099 75.9445 39.3713C75.99 39.3328 76.0491 39.3138 76.1087 39.3185L82.3035 39.8126C82.3631 39.815 82.4194 39.8408 82.4598 39.8844C82.5003 39.928 82.5217 39.9858 82.5193 40.0451C82.5169 40.1044 82.491 40.1603 82.4471 40.2006C82.4033 40.2409 82.3452 40.2621 82.2855 40.2598V40.262Z" fill="#383838"/>
<path id="Vector_120" d="M82.9174 37.7647H82.8972L74.9536 37.0939C74.9241 37.0916 74.8953 37.0835 74.869 37.0701C74.8426 37.0567 74.8191 37.0382 74.7999 37.0158C74.7807 36.9934 74.7662 36.9674 74.757 36.9394C74.7479 36.9114 74.7445 36.8818 74.7468 36.8525C74.7492 36.8231 74.7573 36.7945 74.7708 36.7683C74.7843 36.742 74.8028 36.7187 74.8254 36.6996C74.8479 36.6805 74.874 36.666 74.9022 36.6569C74.9304 36.6479 74.96 36.6444 74.9896 36.6468L82.9354 37.3175C82.995 37.3199 83.0512 37.3457 83.0917 37.3893C83.1322 37.4329 83.1536 37.4907 83.1512 37.55C83.1488 37.6093 83.1228 37.6652 83.079 37.7055C83.0351 37.7458 82.977 37.767 82.9174 37.7647Z" fill="#383838"/>
</g>
</g>
<defs>
<clipPath id="clip0_4591_2596">
<rect width="152" height="100" fill="white"/>
</clipPath>
</defs>
</svg>
